/* XPM */
static char * harrow_xpm[] = {
"128 128 28 1",
" 	c #422108",
".	c #421900",
"+	c #421908",
"@	c #3A1908",
"#	c #3A2108",
"$	c #422910",
"%	c #4A2108",
"&	c #4A2910",
"*	c #4A2908",
"=	c #4A1900",
"-	c #4A3110",
";	c #422908",
">	c #311908",
",	c #423110",
"'	c #4A1908",
")	c #3A1900",
"!	c #422110",
"~	c #3A2110",
"{	c #3A2910",
"]	c #3A2908",
"^	c #312108",
"/	c #3A1000",
"(	c #312110",
"_	c #311008",
":	c #311000",
"<	c #3A1008",
"[	c #311900",
"}	c #291908",
"   .+   ..+   ..@@@@@@#$$$ . %%%%&*.=%&&--.==%&&-.=%&&--.%%&&&-.==%&-.=*&&&&.=%&&& %*&&&.==%&&%.===%&- =%%&&.=%&&&.=%%% %%*&&&;.",
"   .+   ..+   ..@@@@@@#$$$ .+ %%%&*.%%&&--.==%&&-.=%&&--.%%*&&-.==%&-.=%&&&*.=%&&;%**&&&.=%%&&%.===%&-&.%%&&.=%&&&.=%%% %%*&&&%.",
" ; ++   ..    ..@@@@@@#$$$ ++ %%%&%.=%&&--.==%&&-.=%&&--.%%&&&-.=%%&-.=%&&& ==%&&;%%*&& .=%%&&%.===%&-&%%*&&.=%&&&.=%%% %%*&&& .",
" ; .+   ..+   ..@@@>@@#$$$+++ %%*&%+=%&&--.==%&&-.=%&&--.%%&&--.==%&-.=%&&& ==%&&;***&& ==%%&& ====%&-&.%*&&.=%*&*.=%%% %%*&&& =",
" ; .+   ..+   ..@@@>@@#$&$+@+%%%*&%+%%&&--.==%&&-.=%*&--.%%&&--.==%&-.=%*&& ==%&&;****& %%%%&& ====%&--.%*&&.=%**%.=%%% %%%&&& =",
" $ .+   .+    ..@#@@@@#$&- +  %%*& %%%&&--.==%&&-.=%&&--.%%*&--.==%&-.%%*&& ==%&&& ***&  %%%&& ====%&--.%*&&.%%**%.=%%% %%%&&- =",
" $;.+   ..    ..@#@@@@#$&& ++   ;$ %%%&&--..+ $&-.=%&&--.%%&&--.==%&-.=%*&& ==%&&& ****& %%*&& ====%&--.%*&*.=%%%%+=%%% %%*&&& =",
" $;++   +.    .+@#@@@@#$&, ++   $$  %%*&--..+ $$-.=%&&--.%%*&--.==%&-'=%*&& ==%&&& %***& %%*&&+====%&--.%&&*.=%%%%+%%%% %%*&&- =",
" $;++   +.+   .+@#@@@##$$$ ++   $$+++ *---..+ $$-.=%&&--.%%*&--.=%%&-.=%*&& ==%&&& %**** %**&&+===%%&--.%&&*.%%%% +%%%% %%*&&-+=",
" $$++   +.+   ++@#@@@##$$$ ++   $$+++ $---..+ ;$-.=%&&--.=%*&--.==%&-.%%%&& ==%&&&& ***& %%*&&.===%*&--+%&&%.=%%% %%%%% %%*&&-.=",
" $$++   +.+   ++@#@@@##$$$+++   $$+++ $,--..+ $&-.=%&&--.=%*&--.==%&-+=%%&&*.=%&&&& ***& **&&&.===%*&--+%&& .=%%% %%%% %%%*&&-.=",
" $$++   +)+   ++@@@@@###$$+++   $$+++ $$--... ;$-.=%&&--.=%*&--.==%&&+=%%&&*..%&&&&& **& **&&&.===%*&--+%&& ==%%% %%%% %%%*&&-.=",
" $$++ ##@)@   +@@#@@@###$$++++ # $+++ $$,,... $$,.=%&&&-.=%*&--.==%&& =%%&&*..%&&&&& **& **&&&.==%%*&--+%&& ==%%%+%%%%%%%%&&&-.=",
" $$ + ##@)@##+@@@@@@@###$$.+++ ##$@++ !$,,... $$,..%&&&-.=%*&--.=%%&- =%%&&*.=%*&&&& **& **&&-.===%*&--+%&& =%%%%+%%%% %%**&&-.=",
" $$ + ##@)@##@@@@@@@@###$$ .++###~@@+ !$,$... $$,.. &&&-.%%*&--.=%%&& =%%&&&.=%*&&&& *** **&&-.===%&&--+%&& %%%%%+%%%% %%**&&-.=",
" $$#@ ##@)@@#)@@@@@@@###!$ .@@###~@@@# $,$+.. $$,.. *&&-.=%*&--.=%*&& =%%&&&.=%*&&&& *** **&&-.===%&&--+%&& %%%%%+%%%% %***&&-.=",
" $$#+ ##@)@@@))@@@@@@####$ .@@###~@)@##$$$+.+# $,.. $&&-.=%*&--.=%%&& =%%&&&.=%*&&&& *** **&&-.===%&&-- %&- %%%%%+%%%%%%**&&&-.=",
" $$ @###@)@@@))@@@@@@####$ .@@###~@)@##{$$#)@@#]$.. $&&-.=%*&--.=%*&& .=%*&&.=%*&&&  *** **&&-.===%&&-- %&-+%%%%%+%%%%%%***&&&.=",
" $$#@###@)@@@))@@@@@@^###~ )@@@##~@)@@#{${#)@@#]{.. $&&-.=%*&--.=%*&&%.%%&&&.=%*&&- **** *&&&-.===%&&-- %&-+%%%%%.%%%% %**&&&&.=",
" $$#@ ##@)@@@))@@@@@@@####+)@@####@)@@#{{{#/@@##{). $&&-.=%*&--.=%*&&*.=%*&&.=%*&&- %***;*&&&-.==%%&&-- %&-+%%%%%.%%%% %%*&&&&.=",
" $$#@###@)@@@))@@@@@@#####@)@@@###@)@@#{{]#/@@##{). $&&-.=%*&--.=%*&&*.=%&&&.==*&-- %***&**&&-.==%%&&--%%&-+%%%%%.=%%% %**&&&&.=",
" $$#@###@)@@@))@@@@@@@####@)@@@###@@@@#]{##)@@##{). &&&-.=%*&--.=%*&&*.=%&&-.==*&-- %%*&(***&-.==%%&&--%%&- %%%%+.=%%% %**&&&&.=",
" $$#@###@@@@@.)@@@@@@@####@)@@@###@@@@##{##)@>^#]). &&&-.=%*&--.=%%&&&.=%&&-.==*&&- %%*&&***&-.==%*&&-- %&- %%%%+==%%% %%*&&&*.=",
";$$#@##@@@@#@.)@@@@@@@####@)@@@###@@@@##{##@>>>^{..%&&&-.=%%&--.=%%&&&.=%*&-.==*&-- %%*&;***&-.==%*&&--%%&- %%%%+==%%% %**&&&*.=",
"$,$#@###@@+#@.@@@@@@@#####@)@@@###>@@@##{#@>_>>^{.=%&&&-.=%%&--.=%%&&&.=%*&-.==%&-- %%*&;***&-.==%*&&-& %&- %%%%+=%%%% %%*&&&%.=",
"$,$#@#]@@+  +.)@@@@@@#####@)@@@^^^>_@@##{##>:>>#{.=%&&&-.=%*&--.=%%&&&.=%*&-.==%&-- %%*&;***&-.==%*&&-& %&- %%%%+==%%% %%*&&&%.=",
"-,$#@##@@+  @))@@@@@@####@@)@@>>^^>_>@##{##@>>>#{.=%&&&-.=%%&--.=%%&&&.=%*&-.==%&-- %%*&;*&*&-.==%%&&-& %&- %%%%+==%%% %%*&&&%.=",
"-,$#@##@@   @)@@@@@@@####@@)@>>>^^>_>>##{##@>>>#$.=%*&&-.=%%&--.=%%&&&.=%*&-.==%&-- %%*&&&&&&-.==%%&&-& %&& %%%%+==%%% %%*&&&%.=",
"--$#@##@    @))@@@@@@####@@)@>>>^^>>_>^#{##@>>>#$.=%&&&-.=%%&--.=%%&&-.%%&&-.==%&-- %%*&&;&&&-.==%%&&-& %&&%%%%%+==%%+%%%*&&& ==",
"--;#@##@ %  @))@@@@@@####@@/>>>>^^>_>>##]##@>>>#$.=%&&&-.=%%&&-+%%%&&-.%%*&-.==%&-- %%*&&;*&&-.==%*&&- %%&& %%%%+===%+%%%*&&* ==",
"--  @#]@    @)@)@)@@@####@>/:>>>^^>>_>^#{##@@>^]$.%%&&--+=%%&&-+=%%&&-.%%&&-.==%&--  %%&&;*&&-.==%*&&- %%&& %%%%+=%=%+%%%*&& %==",
"--  ##]     )))@@)_@@####@>::>>>^^>>_>>#{##@@>#{,.%%&&--+=%%&&- =%%&&-+%%&&-.==%&--* %%&&&*&&-.==%*&&- %%&& %%%%+===%%%%%*&& %=%",
"--   #]    #))))@)_@@####@>::>>>>^>>_>>#{##@@@#$-.%%&&-- =%%&&- =%%&&-+%%&&-+==%*--& %%&&;&*&-.==%*&&- %%&& %%%%.===%+%%%*&& %==",
"-- % #;    #))))@/:@@###@@>:_>>>>^>>_>>#{##@@@#$-.%%&&-- ==%&&- =%%&&- %%&&-+=%%*--&+%%&&;**&-.==%*&&- %%&& %%%%.===%.%%%*&& ===",
"-- %  ;    #/)))@::@@####@>:_>>>>^>>_>>#]##@@@#$-.%%*&-- ==%&&& =%%&&- %%&&- =%%*--&.%%&&;**&-.==%&&&- %%&& %%%%.===%.%%%*&& ===",
"-- % $;    #/)))@::>@###@@>:_>>>>^>>_>>#]##@@#!$$.  &&-- ==%&&& ==%&&& %%*&& =%%*&-&.=%&&;**&-.==%&&&& %%&& %%%%.===%.=%%*&& ==%",
"-- % $;   ##/))@@::_@###@@@__>>>>^>>_>>#{##+##$$$.+ $$-- ==%&&& ==%&&- %%*&& %%%%&-&.=%&&;**&-.==%&&&& %%&& %%**.==%%.=%%*&& ===",
"-- %%$;   ##/))@>::_@###@@@__>>>>^>>_>>^]##@  $$$.+ $$--&.=%*&&%.=%&&- %%*&& %%%%&--.=%&&;**&-.==%&&&& *%&& %%**.==%%.=%%*&&+===",
"--& %$;   ##/))@_::_>###@@@__>>>>>>>_>>#{##@  $$$.+ $$--&.=%&&&*.=%&&- %%*&& %%%%&--.=%&&;**&-.==%&&&&& %&&%%%*&.==%%.=%%*&-.===",
"--& *$    ##/)@>_::_>###@@)__>>>>>>>_>>#]#@+  $$$.  $$--&.=%*&&*.=%&&& %%*&& %%%%&--.=%&&;**&-.==%&&&&& *&  %%*&.=%%%.=%%&&-.==%",
"--& *$ %% ;#/)@__:::>###@@)__>>>>>>>_>>#]#@+  $$$.+ $$,-&.=%*&&&.=%&&& %%*&&  %%%&--.=%&&;**&-.==%&&&&& *& %%%&&.%%%%.==%*&-.===",
"-&& *& %% $#))___:::>>##@@)@>>>>>>>>_>>###)+  $$ .+ $$,-&.=%*&&&.=%&&& %%*&&& %%*&--.=%&&;**&&.==%&&&&& *& %%%&-.%%%%.==%*&-.===",
"-&& *&    $$)):__::_>>##@))<>>>>>>>>_>>###)+  $$ .+ $$,,$.=%*&&&.=%&&&  %%&&& %%%&--.=%&&;**&&.==%&&&&& *& %%%&-.==%%.=%%*&-.===",
"-&& *&    $$))___::_>>##@))@@>>^>>>>>>^##@)+  $$ .+ $$,,$..%*&&&.=%&&&* %*&&& +%*&--.=%&&;*&&&.==%&&&&& *& %%%&-.=%%%.=%%*&-.===",
"&& **$    $$)/:__::_>>##)))@@@^^>>>>>>^#]@)+  $$ .+ $$,,$..%*&&&.=%&&&* %*&&&%+%%&--.=%&&;**&&.==%&&&& **& %%%&-.==%%.=%%*&-.===",
"&& *;$    $$)/:__::__>^#)))@@#^^>>>>>>^]])..  !$ .+ $$,,$..%*&&&.=%&&&& %%&&&%+%*&--.=%&&;**&&===%&&&& **& %%%&-.==%%.=%%&&-.===",
"&& *;$    $,)/:__::_>>^#)))@@##^>>>>>##]#))@  !$ .+ $$,,,..%*&&-.=%&&&& %%&&&%+%*&--.%%&&;**&&.==%&&&& **& %%%&-.==%%.%%%&&-.===",
"&& ;;$    $$)::__::_>>^#)))@###^>>>>>~{]#))@##~$ .+ $$,,,.=%*&--.=%&&&& %%&&&*+%*&--.=%&& ***&.==%&&&& **& %%%&-.==%%+%%%&&-.===",
"&;%; ;    $$/:___::_>>^#))@@###^>>>>#${{#))@##~~ ++ $$,,,.=%*&--.=%&&&& %%&&&*.%*&--.=%&& **&&.==%&&&;**** %%%&-.=%%%+%%%&--.=%%",
"&;*  ;    ${/:___:__>>^#)))+###^>>>>#${{#))@##~# ++ $$,,,.=%*&--.=%&&&& %%&&&&.%*&--.=%&& %%*&.==%&&&;**** %%*&-.=%%%+%%%&--.==%",
"& %  ;    ${/:___:__>>^^))++@###[[>@;$${#))@##~# ++ $$,,,.=%*&--.=%*&&&+%%&&&&.%%&--.=%&& %%&&.==%&&&;%*%* %%%&-.=%%%+%%%&--.=%%",
"& %       ${/:___:__>>^^)).+@###[[>#$$${#))@##~] ++ $$,,,.=%*&--.=%*&&&+%%&&&&.%%&&-.=%&& %%&&.==%&&& %*%* %%*&-.=%%%+%%%&--.==%",
"&     +   {{/:___:__>>^^/).+@##~[[@ $${{#/)@##~ +++ $$,,,.=%%&--.=%*&&&.%%&&&&.%%&&-.=%&& %%&&.==%&&&  *%%+%%*&-.=%%%+%%%&--.==%",
"&&    ++  ~{/:__>:__>>^#/).+###{)[@;$${{#/)@##~;+++ !$,,,.=%*&--.=%*&&&.%%&&&&.%%&&-.=%&&.%%&&.==%*&&& *%%+%%*&-.=%%% %%*&--.===",
"&&;   ++  ~{::__>:__>>^#/))+@#~{)[@ $${{#/)@##~$+++ $$,,,.=%%&--.=%*&&&.%%&&&-.%%&&-.=%&&.%%&&.=%%*&&&*%%%+%%*&-.=%%% %%*&--.==%",
"&&    .+  #{):__>:__>>^#//@@@#]{))+ $${{#/)@##~$.++ $$,,,.=%%&--.=%*&&&.=%*&&-.%%&&-.=%&&.=%&&.==%*&&& *%%.%%*&-.=%%% %%*&--.=%%",
"&&    ..  #{):__>:__>^^#//)@@##{))+ $${{#//@##$$).+ !$,,-.=%%&--==%%*&&.=%&&&-.=%&&-.=%&&.=%&*.==%*&&& %%%.=%*--.=%%% %%*&--+===",
"&&    ..+ #{>:__>:__>^^#//)@@#{{)@+ $${{#//@@#!$..+ $$,,-.=%%&--.=%*&&&.=%&&&-.=%&&-.=%&&.=%&*.==%*&&& %%%.=%*--.=%%% %%*&-- ==%",
"&&    ..+##{>___>___>^##///@@#~{)@+ $${{#::@# $$..+ $$,,-.==%&--.=%**&&.=%&&&-.=%&&-.=%&&.=%&&+==%*&&& %%%.=%*--.%%%% %%*&-- ===",
"-&    ..+##{>:_>>___>^##//@@@##{)@+ $$${#:/@# !$).+ $$,--.==%&--.=%**&&.=%&&&-.=%&&-.=%**.=%&*+==%*&&& %%%.=%*--.=%%% %%*&&- =%%",
"-&    ..+##{>:_>>___>^##///@@##{)@+ $${{#:/@# ;$).+ $$,--.==%&--.=%%*&&.=%*&&-.%%&&-.=%**.=%&*+==%*&&& %%%.=%&--==%** %%*&&- ==%",
"-&    ..+##{@::>>>__>^##///@@#~{@@+ $$,{#::<# #{).+ $$,--.==%&&-.=%%*&&.%%*&&-.=%&&-.=%%%.=%**%==%%&&& %%%.=%*--.=%*& %%*&&- ===",
"-&    ..+##{@:_>>>__>^##//)@@##{)@+ ;${{#::@## ;).+ $$---.==%&&-.=%%&&&.=%*&&-.=%&&-.=%%%.=%**+==%*&&& %%%.=%*--.=%*& %%*&&- %==",
"-& %. ..+##{>::>>>__>^##///@@##{)@+ $$${#::@## $).+ $$---.=%%&&-.=%%&&*.=%**&-.=%&&-.=%%%.=%** ==%%&&& %=%.=%*--.=%&& %%*&&- %=%",
"-- %. ..+##{@::>>>_>>^##)/@)@###@@+ !$,{{::@###{))+ $$---.==%&&-.=%*&&*.=%**&-.=%&&-.=%%%.=%** ==%*&&& %=%.=%*--.=%*&* %%&&-; ==",
"-- == ..+##{@:_>>>__>^##)//@@###@.+  {{{]:/@###{).+ $,---.=%%&&-.=%*&&*.=%*&&-.=%&&-.=%%%.=%** ==%*&&& ==%.=%*--.=%*&* %%*&-& ==",
"-- == ..+##{@::>>>_>>###@/))@###@)@#~{${]::@#];{).+ $----.==%&&-.=%*&&%.=%%&&-.=%&&-.=%%%.=%** ==%%&&-+==%.=%*--.%%*&& %%*&-&%.=",
"--+==%..+##{@::>>>_>>###@/))@###@)@##{{{]//@#]]{))+ $&---.==%&--.=%*&& ==%*&&-.=%&&-.==%%.=%%*%==%%&&-+==%.%%*--+%%**& %%*&--%.=",
"--.==%..+##{@:_>>>>>>###@//)@###@)@##{{{]//@#]]{))+ &&---.==%&--.=%*&& ==%*&&-.=%&&-.==%%.=%%*%==%%&--.==%.%%*--+%%**& %%%&--*.=",
"--.==%.+@##{@:_>>>>>>###@//)@###@)@##{{{#/)@#;]{).+ &&---.==%&--.=%*&& ==%%*&-.=%&&-.==%%.=%%*%==%%&--.==%.%%*&- %%**& %%%&--*.=",
"--.==%+++##{@/_>>>>>>###@@/@@###@)@##{{{#/)+ ;;{).+%&&---.==%&--.=%*&& ==%%&&-.=%&&-.==%%.=%%* ===%&--.==%+%%%&- %%%*&+%%%&--&.=",
"--.==%++@##{#/_>>>>>>###@@/@@###@)@##{{{#/)  $;{)..%*&---.==%&--.=%*&& ==%%&&-.=%&&-.=%%%.=%** ===%&--.==%+%%%&- %%%**+%%%&&-&.=",
"--+==%++@@#~#:>>>@>>>^##@@)@@###@)@##{{{#/) ;$;$@.=%*&---.=%%&--.=%*&& ==%%&&-.%%&&-.=%%%.=%** ===%&--+==%+%%%&& %%%**+%%%&&-&.%",
"--+==%++@@###/>>>>>>>^###@)@@###@)@##{{{#/. *$;$@.=%*&---.=%%&&-.=%*&&+==%%&&-.%%*&-.==%%.=%** ===%&--+==%+%%%&& %%%**+%%%*&-&.=",
"-- ==%++@@###/>>>@>>>^###@)@@###@)@##{{{]). %$;$ .=%*&---.=%%&&-.=%*&-+==%%&--.%%*&-.==%%.=%** ===%&-- ==%++%%&& %%%%% %%%*&--.=",
"-- ==%%+@@###/>>>@_>>^###@)@@###@)@##{{{]). %$$$ .=%*&---.=%%&--.=%*&-.==%%&--.%%&&-.==%%.%%**+===%&-- ==%%+%%&& %%%%% %%%*&--.=",
"-- ==%%+@@###)>>>>_>>>###@)@@###@)@##{{{{+.%%$$$;.=%%&--&.=%%&--.=%*&-.==%%&&-.%*&&-.==%%.=%**+===%&-- ==%%+%%&& %%%%% %%%*&--.=",
"-- ==% +@@###)>>>>_>>>^###)@@###@)@@#{{{$ .%%$$$$.=%%&--&.=%%&&-.=%%&-.==%%&--+%%&&-.=%%%.=%**+===%&-- ==%%+%%&&& %%%% %%%%&--.=",
"-- .=% @@@##@@>>>>__>>^## .)@###@)@@#{{$$ =%%$$$$.=%%&--&.=%%&&-.=%%&-.==%%&--+%*&&-.=%%.=%%**+===%&-- .=%%%%%&&& %%%% %%%%&--.=",
"--&.=  @@@^^@@>>>>__>>^## .)@###@)@@#~{,, =%%$$$-.=%%&--&.=%%&&&.=%%&-.==%%&&- %**&-.=%%.=%%**+===%&--&.=%%+%%&&& %%%% %%%%&--.=",
"--&.=  @@@^^>>@>>>__>>^##;..@###@)@@#~$,, == $$$-.=%*&--&.=%%&&&.=%%&-.==%%&&- %*&&&.=%%.=%%*&+===%&&-&.=%% %%&&&% %%% %%%*&--.=",
"--&..  +@>^^>>>>>>_>>>^##$..@###@/@@##$,-&.= $$$-.=%*&-- .=%%&&&.=%%&-.==%%&-- %*&&&.=%.==%%*&%===%&&-&.=%% %%&&&* %%% %%%*&--.=",
"--&..  #@>^^>>>@>>>>>>^#{$))@##>@:>@#{,--&.=  $$-.=%%&-- ==%%&&&.=%*&-.==%*&-& %*&&&.=%.==%%&& ===%&&-&.=%% %%&&-* %%% %%%%&--.=",
"--&..   @>^^>>>@@>>>>>##$$))@@#@@:>@#$,--&.= #]$-.=%*&-- ==%%&&&.=%*&-.==%*&-& %*&&&+=%.==%%&& ===%&&-&.=%% %%*&-&+%%% %%%%&--.=",
"---..   @>>^^>[@@@@@>@##$$))@@>>>:>@#$---&..+ ;$,.=%*&-- ==%*&&*.=%*&-.==%*&-& %*&&&+=%.==%%&& ===%&&--.=%% %%*&-&+%%% %%%%&--.=",
"--,..   )>>^^>[@@#@@@@#]$$))@>>>>:>@#&----..+#]$,.=%*&-- ==%*&&&.%%*&-.=%%*&-& %*&&& %%.==%%&& ===%&&--.=%% %%*&-&+%%% %%%%&--.=",
"&-$..   )>>^^>[@@ @@@@#;-$))@>>>>:>@ &----..@##{,.=%*&--+==%*&&*.=%*&-.=%%&&-& %&&&& %%.==%%&& ===%&&--.=%% %%*&-&.%%% %%%%&--..",
"&-$..   )@>^^>[)@ @@@##$-$))@>>>>__@ $----..@##{$.=%*&--.==%*&&*.=%&&&.=%%&&&& %&&&* %%+%=%%&& ===%&&--.=%% %%%&-&.%%%% %%%&--..",
"$,$..   )@>^^>:)@  @@##$-$))@>>>>__@@ &---..@##{$.=%*&--.==%&&&%.=%&&&.=%%&&&& %&&&* %%+%%%%&&%.==%&&--.=%% %%%&--.=%%% %%*&--..",
"$,$.+   )>>^^>:)@  @@# $-$))[>>>>__@@ &---..@##{$.=%*&--.=%%&&& ==%&&&.=%*&&&  %*&&* %%+%%%*&&*.==%&&--.%%% %%%&--.=%%% %%%&--+.",
"$,$..   )@>^^>:)@  @@# &&$.)[>>}>_>@@ $---.)@##]$..%*&--.=%%&&& ==%&&&.%%*&&& %%&&&% %%+%%%%&&*.==%&&--.=%%%+%%&--.=%%% %%%&&-+.",
"$,$.+   )>>^^>:)+  +@# &&$+)[>>}}__@@#$--,.)@##{{..%*&--.=%%&&- ==%&&&+%%*&&& %**&& %%%+%%%%&&*.==%&&--.%%%%+%%&--.=%%% %%*&&-+.",
"$,$.+   )_>^^^:/+  ++  *&$+)[>>>>__@@#$--,.)@##{].. *&--.=%%&&- ==%&&&+%%*&&& %*&&& %%%+%%%*&&&.==%*&--.%%%%+%%&--.=%%%+%%%*&- .",
"$,$.+   )<>^^^:/+  ++  *&$@)[>>>>__>@#$,-,))@##{;). *&--.=%%&-- ==%&&*+%%&&&& %*&&& %%%++%%%&&&.==%*&--.%%%%+%%&--.=%%%+%%%*&- .",
"$,$.+   )<>^^^:/+  ++ %*&&@)[>>>>__>@# $-$))@  $].. *&--.=%%&&-+==%&&* %%&&&& %*&&& %%%%+=%*&&&.=%%*&--.%%%%+%%&--.=%%% %%%*&- .",
"$,$.+   )/>^^^:/+     %&&$@)[>>>>__>@##$,$))@##$;.+ ;&--.=%%&--+=%%&&* %%&&&& %*&&* %%%%+=%*&&&.==%*&--.%%%%.=%&--.=%%% %%%&&- .",
"$,$.+   )/>^^^:/+     %*&$@)[>>>>___@##$,{/)@  $;.+ ;&--.=%*&--+==%&&% %%&&&* %*&&  %%%%+=%*&&&.==%%&--.%%%%.=%&--.=%%% %%%*&- .",
"$,$.+   )/>^^^:)+     %*$ @)>>>>>___@##$${))+  $;.+ ;$--.=%*&--.==%&&  %*&&&  %*&& %%%%%+=%*&&*.==%%&--.%%**.=%&&-.=%%% %%%*&- .",
"$,$.+  ;./>^^^:)+     %*$ @)>>>>>>__@##{{#))@ !$;.+ $$--.=%*&--.==%&& %%%&&& %%*&& %%%%%+=%*&&*.==%*&-&.%%**.=%&&&.=%%% %%%*&- .",
"$,$+   ;.)>^^^:)+     %*$#@)>>>>>>__>##{{#))+  $;.+ ;$,-.=%*&--.==%&& %%*&&& %%*&& %%%%%+=%%&&*.==%%&-&=%%*&.=%&&&.=%%% %%%*&& .",
"$,$.  ; .)@^^^/)+     %$$#@)@>>^>>__@##{{#))+ !$;.+ $$,-.=%*&--.==%&& %%*&&& %%*&& %%%%%+=%%&&%.==%%&-&=%%*&.=%&&&.=%%% %%%&&- .",
"$,$+  ;;.)@^^#/.      %$$#@@@>^^>>:_>##{]#/)+ !$;.+ $$,-.%%*&--.==%&& %%*&&& %%&&;%*%%%%.=%*&&%.==%%&--+%%*&.=%&&&.=%%% %%%&&- .",
"$,$+ ;$;.)@#^#/.      %$$#@@@>^^>>__>##{##/)+ $$;.+ $$$,.%%*&--.=%%&& %%*&& %%%&&;%%%%% .=%*&&%.==%%&--%%*&&.=%&&&.=%%% %%%&&- .",
"$,$+ ;$;.)@###/.+      $$#)@@@^^^>:>@##{##/)+ $$;.+ $$$,.%%*&--.==%&- %%*&& %%%&&;%%*%% %%%*&& ===%%&--+%*&&.=%&&&.=%%% %%%&&- .",
"$,,+ ;$ .)@###/.       $$#)@@@#^^>:>>##{]#/)+ $$;.+ ;$$,.%%*&--.==%&-+%%%&& %%%&&;*%%*% %%%*&& ====%&--+%*&&.=%&&*.=%%% %%%&&& .",
"$,,+ ;$ ..@###/.       $$#)@@@##^>/@@##{]#/)@ $$;.+ $$$,.%%*&--.==%&&+%%*&& %%%&&& ***%  %%*&& ====%&--+%*&&.%%&&*.=%%% %%%&&- .",
"$,,+ ;$ ..@###).     %;$$#)@@####>:>@##{{#/)@ $$;.+ $$$,. %*&--.==%&-+%%*&& %%%&&& %%**% %%*&& ===%%&--+%*&*.=%&&%+=%%% %%*&&&+.",
"$-,+ $$ ..@###.+       $$#)@@####@:@@##{{#/)@#$$;.+ $$$,. %*&--.==%&&%%%*&& %%%&&& %**** %%*&&+===%%&--+%&&*.=%&&%+%%%% %%%&&-+.",
"$--+ $$ .+@###++    %  $$ )@@####@/@@@#{{#/))@;$$.. $$$,. %*&--.=%%&-.%%*&& %%%&&& %%*** %**&&+===%%&--+%&&*.%%&& +%%%% %%*&&-+.",
"&--+ $$ ..###@++    %  $$;)@@####@/@@##{{#/))@ $$.. $$$-..%*&--.==%&-+%%%&& %%%&&&& **** %%&&&.===%*&--+%&&%.=%&& %%%%% %%*&&-..",
"&--+ $$ ..###@++   %%  ;$$)@@#####:@@##{{#/))@ $$.. $$$-..%*&--.==%&-+%%%&&*+%%&&&& ***& **&&&.===%*&--+%&& .=%&& %%%% %%%*&&-..",
"&--+ $$ .. ##+ +   %   ;$$)@@#####/@@##{{#/))@#$$.. $$$-.=%*&--.==%&&+%%%&&*++%&&&&& **& **&&&.===%*&--+%&& ==%&& %%%% %%%*&&-..",
"&--+%$$ .. ##+ +#  %   ;$$)+@#####:>@##{{#/).+!!$.. $$$-.=%*&--.=%%&& %%%&&*.+%&&&&$ **& **&&&.==%%*&--+%&& ==%&& %%%%%%%%&&&-..",
"&--+%&& .. ##+++#  %   ;$$)@@#####:>@##{{#))) !$$.. $$$-.=%*&--.=%%&- %%%&&*..%*&&&$ **& **&&-.===%*&--+%&& ==%&&+%%%% %%**&&-.=",
"&--+%&& == # +++       ;$$.@@#####)@@##{{#)..+!$$.. $$$-.%%*&--.=%*&& =%%&&&..%*&&&$ *** **&&-.===%&&--+%&& ==%&&+%%%% %%**&&-.=",
"&--+%&& == # +++#      ;$$..@#####[@@##{{ ).+ !$$.. ;$$-.=%*&--.=%*&& =%%&&&..%*&&&$ *** **&&-.===%&&--+%&& ==%&&+%%%% %***&&-.=",
"&-- %&-+== ; .+@##     ;$$).+#####[>@##{{ ..+ !$$.. $$&-.=%*&--.=%%&& =%%&&&..%*&&&$ *** **&&-.===%&&-- %&-+==%&&.%%%%%%**&&&-.=",
"&-- %&-+== ; .++  #    ;$$+++#####[>>##]$ ..+ !!,.. $&&-.=%*&--.=%*&& .=%*&&..%*&&&  *** **&&-.===%&&-- %&-+==%&*.%%%%%%***&--.=",
"&-- %&-.== ; .+   +    ;$$+++ ####[>@>#{$ ..+ $$,.. &&&-.=%*&--.=%*&&%.%%&&&..%*&&- ;*** *&&&-.===%&&-- %&-.==%&*.%%%% %***&--.=",
"&-- %&-.== ;#..   #     $$+++ ####>@>@#{$ ..+ $$,.. &&&-.=%*&--.=%*&&*.=%*&&..%*&&-  ***;*&&&-.==%%&&-- %&-.==%&%.=%%% %%*&&--.=",
"&--%%&-.== ##..        !$$+   ####@@@@#]$ ..+ $$,.. ;&&-.=%*&--.=%*&&*.=%*&&..=*&--  ***&*&&&-.==%%&&--%%&-.==%&%.=%%% %**&&--.=",
"&--%%&-.== #@..         $$+++ ####@@####$ ..+ $$,..+;&&-.=%*&--.=%*&&*.=%*&-.==*&--  %*&(*&&&-.===%&&--%%&-.==%& .=%%% %**&&--.=",
"&-- %&-.=. #@++         $$    ##########] ..  ;;$..+;&&-.=%*&--.=%%&&&.=%*&-.==*&&-  %*&&&&&&-.===%&&-- %&-.==%& ==%%% %%*&&--.=",
"&--%%&-.=. #@++        !$$    ########### ..+ ;$,..+;&&-.=%%&--.=%*&&&.=%*&-.==%&--  %*&$&&&&-.===%&&--%%&-.==%& ==%%% %%*&&--.=",
"&-- %&-..+##@           $$   ############ ..  $$,..+ $&-.=%%&--.=%*&&&.=%*&-.==%&--  %*&$&&&&-.===%&&-- %&-.==%& =%%%% %%*&&--.=",
"&-- %&-. +##@          !$$   ############  +    $..  $&-.=%%&--.=%*&&&.=%*&-.==%&-- %%*&$&&&&-.===%&&-- %&-.==%&+==%%% %%%&&--.=",
"&--+%&-. +@#@@          $$   ############# +   ;,..  $&-.=%%&--.=%*&&&.=%*&-.==%&-- %%*&$&&&&-.===%&&--+%&-.==%&+==%%% %%%&&--.=",
"&--+%&,.+@@#@@          $$   ############# +  ;;,... &&-.=%%&--.=%*&&&.=%%&-.==%&-- %%&&&&&&&-.===%&&--+%&-.==%&.==%%% %%%&&--.="};
