/* XPM */
static char * single_door_xpm[] = {
"128 128 8 1",
" 	c #442200",
".	c #441100",
"+	c #331100",
"@	c #332200",
"#	c #442211",
"$	c #443311",
"%	c #332211",
"&	c #221100",
"   ..   ...   ..++++++@### .     # .. ##$$... ##$.. ##$$.  ###$... #$.. ####.. ###   ###... ## .... #$ .  ##.. ###..       ### .",
"   ..   ...   ..++++++@### ..    # .  ##$$... ##$.. ##$$.   ##$... #$.. ### .. ##    ###..  ## .... #$#.  ##.. ###..       ### .",
"   ..   ..    ..++++++@### ..    # .. ##$$... ##$.. ##$$.  ###$..  #$.. ### .. ##    ## ..  ## .... #$#   ##.. ###..       ### .",
"   ..   ...   ..++++++@###...    # .. ##$$... ##$.. ##$$.  ##$$... #$.. ### .. ##    ## ..  ## .... #$#.  ##..  # ..       ### .",
"   ..   ...   ..++++++@###.+.    # .  ##$$... ##$..  #$$.  ##$$... #$..  ## .. ##     #     ## .... #$$.  ##..    ..       ### .",
" # ..   ..    ..+@++++@##$ .     #    ##$$... ##$.. ##$$.   #$$... #$.   ## .. ###    #     ## .... #$$.  ##.     ..       ##$ .",
" # ..   ..    ..+@++++@### ..    #    ##$$... ##$.. ##$$.  ##$$... #$..  ## .. ###     #    ## .... #$$.  # ..    ..       ### .",
" # ..   ..    ..+@++++@##$ ..   ##     #$$... ##$.. ##$$.   #$$... #$..  ## .. ###     #    ##..... #$$. ## ..    .        ##$ .",
" # ..   ...   ..+@+++@@### ..   ##...  $$$... ##$.. ##$$.   #$$..  #$..  ## .. ###          ##....  #$$. ## .     .        ##$..",
" ##..   ...   ..+@+++@@### ..   ##... #$$$...  #$.. ##$$..  #$$... #$.   ## .. ####    #    ##....  #$$. ## ..             ##$..",
" ##..   ...   ..+@+++@@###...   ##... #$$$... ##$.. ##$$..  #$$... #$..  ## .. ####    #   ###....  #$$. ## ..             ##$..",
" ##..   .+.   ..+++++@@@##...   ##... ##$$...  #$.. ##$$..  #$$... ##..  ## .. #####   #   ###....  #$$. ## ..             ##$..",
" ##.. @@+++   .++@+++@@@##.... @ #... ##$$... ##$.. ###$..  #$$... ## .  ## .. #####   #   ###...   #$$. ## ..   .        ###$..",
" ## . @@+++@@.+++++++@@@##.... @@#+.. ##$$... ##$.. ###$..  #$$..  #$ .  ## ..  ####   #   ##$....  #$$. ## .    .         ##$..",
" ## . @@+++@@++++++++@@@## ...@@@%++. ##$#... ##$.. ###$.   #$$..  ## .  ###..  ####       ##$.... ##$$. ##      .         ##$..",
" ##@+ @@++++@++++++++@@@## .++@@@%+++@ #$#... ##$..  ##$..  #$$..  ## .  ###..  ####       ##$.... ##$$. ##      .         ##$..",
" ##@. @@+++++++++++++@@@@# .++@@@%+++@@###...@ #$.. ###$..  #$$..  ## .  ###..  ####       ##$.... ##$$  #$      .        ###$..",
" ## +@@@+++++++++++++@@@@# .++@@@%+++@@%##@+++@@#.. ###$..  #$$..  ## ..  ##..  ###        ##$.... ##$$  #$.     .         ###..",
" ##@+@@@+++++++++++++@@@@% ++++@@%++++@%#%@+++@@%.. ###$..  #$$..  ## .  ###..  ##$       ###$.... ##$$  #$.     .        ####..",
" ##@+ @@++++++++++++++@@@@.+++@@@@++++@%%%@+++@@%+. ###$..  #$$..  ## ..  ##..  ##$       ###$...  ##$$  #$.     .        ####..",
" ##@+@@@+++++++++++++@@@@@+++++@@@++++@%%@@+++@@%+. ###$..  #$$..  ## .. ###... #$$     #  ##$...  ##$$  #$.     ..       ####..",
" ##@+@@@++++++++++++++@@@@+++++@@@++++@@%@@+++@@%+. ###$..  #$$..  ## .. ##$... #$$    #%   #$...  ##$$  #$     ...       ####..",
" ##@+@@@+++++.++++++++@@@@+++++@@@++++@@%@@+++@@@+. ###$..  #$$..  ###.. ##$... ##$    ##   #$...  ##$$  #$     ...       ### ..",
" ##@+@@++++@+.++++++++@@@@+++++@@@++++@@%@@++++@%.. ###$..  #$$..  ###..  #$... #$$    #    #$...  ##$$  #$     ...       ### ..",
"#$#@+@@@++.@+.+++++++@@@@@+++++@@@++++@@%@+++++@%.. ###$..  #$$..  ###..  #$... #$$    #    #$...  ##$#  #$     ..        ### ..",
"#$#@+@@++.  ..+++++++@@@@@+++++@@@++++@@%@@++++@%.. ###$..  #$$..  ###..  #$... #$$    #    #$...  ##$#  #$     ...       ### ..",
"$$#@+@@++.  +++++++++@@@@+++++++@@++++@@%@@++++@%.. ###$..  #$$..  ###..  #$... #$$    #  # #$...  ##$#  #$     ...       ### ..",
"$$#@+@@++   +++++++++@@@@+++++++@@++++@@%@@++++@#..  ##$..  #$$..  ###..  #$... #$$    ######$...  ##$#  ##     ...       ### ..",
"$$#@+@@+    +++++++++@@@@+++++++@@++++@@%@@++++@#.. ###$..  #$$..  ##$.  ##$... #$$    ## ###$...  ##$#  ##     ...  .    ### ..",
"$$ @+@@+    +++++++++@@@@+++++++@@++++@@@@@++++@#.. ###$..  ##$.   ##$.   #$... #$$    ##  ##$...  ##$   ##     .... .    ##  ..",
"$$  +@@+    +++++++++@@@@+++++++@@++++@@%@@+++@@#.  ##$$..  ##$..  ##$.  ##$... #$$    ##  ##$...  ##$   ##     .. . .    ##  ..",
"$$  @@@     +++++++++@@@@+++++++@@+++++@%@@+++@%$.  ##$$..  ##$ .  ##$.  ##$... #$$    ### ##$...  ##$   ##     ....      ##  . ",
"$$   @@    @+++++++++@@@@++++++++@+++++@%@@+++@#$.  ##$$ .  ##$ .  ##$.  ##$...  $$#   ## # #$...  ##$   ##     .... .    ##  ..",
"$$   @     @+++++++++@@@+++++++++@+++++@%@@+++@#$.  ##$$ .. ##$ .  ##$   ##$..   $$#.  ##   #$...  ##$   ##     .... .    ## ...",
"$$         @+++++++++@@@@++++++++@+++++@@@@+++@#$.   #$$ .. ### .  ##$   ##$ .   $$#.  ##   #$... ###$   ##     .... .    ## ...",
"$$   #     @+++++++++@@@+++++++++@+++++@@@@++@###.  ##$$ .. ### .. ###    ## .   #$#.. ##   #$... ####   ##     .... ..   ## .. ",
"$$   #    @@+++++++++@@@+++++++++@+++++@%@@.@@###.. ##$$ .. ### .. ##$    ##     #$#.. ##   #$... ####   ##     ...  ..   ## ...",
"$$   #    @@+++++++++@@@+++++++++@+++++@@@@+  ###.. ##$$#..  ## .. ##$    ##     #$$.. ##   #$... ####   ##     ...  ..   ##....",
"$$#  #    @@+++++++++@@@+++++++++++++++@%@@+  ###.. ##$$#.. ### .. ##$    ##     #$$.. ##   #$... #####  ##    #...  ..   #$....",
"$$#  #    @@+++++++++@@@+++++++++++++++@@@+.  ###.  ##$$#..  ## .. ###    ##     #$$.. ##   #$... #####  #     #..   ..  ##$... ",
"$$#  #     @+++++++++@@@+++++++++++++++@@@+.  ###.. ##$$#..  ###.. ###    ##     #$$.. ##   #$... #####  #    ##.    ...  #$....",
"$##  #    #@++++++++++@@+++++++++++++++@@@+.  ## .. ##$$#..  ###.. ###    ###    #$$.. ##   ##... #####  #    #$.    ...  #$....",
"$##  #    ##++++++++++@@+++++++++++++++@@@+.  ## .. ##$$#..  ###.. ###    ###    #$$.. ##   ##... #####  #    #$...  ..   #$....",
"$##  #    ##++++++++++@@+++++++@++++++@@@++.  ## .. ##$$#..  ###.. ###    ### .  #$$.. ##  ###... #####  #    #$..   ..   #$....",
"##   #    ##++++++++++@@++++++@@++++++@@@++.  ## .. ##$$#..  ###.. ###    ### .  #$$.. ##   ##... ####   #    #$...  ..   #$....",
"##   #    ##++++++++++@@+++++@@@++++++@@@+..  ## .. ##$$#..  ###.. ####   ### .  #$$.. ##   ##... ####   #    #$...  ..  ##$....",
"##   #    #$++++++++++@@+++++@@@+++++@@@@+++  ## .. ##$$$..  ##$.. ####   ### .  #$$.  ##   ##... ####   #    #$...  .   ##$....",
"##   #    ##++++++++++@@++++@@@@+++++%%@@+++@@%# .. ##$$$..  #$$.. ####   ### .  #$$.. ##    #... ####   #    #$...  .   ##$....",
"#         ##++++++++++@@++++@@@@++++@#%%@+++@@%% .. ##$$$..  #$$.. ####   ### .  #$$.. ##   ##... ###         #$..   .   #$$..  ",
"#         #%++++++++++@@+++.@@@@++++@#%%@+++@@%@ .. ##$$$..  #$$.. ####   ####.  #$$.. ##    #... ###         #$..   .   #$$... ",
"#         #%++++++++++@@++..+@@@++++ ##%@+++@@%@ .. ##$$$..  #$$..  ###.  ####.  #$$.. ##   ##... ###         #$..   .   #$$..  ",
"#         #%++++++++++@@++..+@@@+++@###%@+++@@%@ .. ##$$$..  #$$..  ###.  ####.  ##$.. ##   ##... ###         #$..   .   #$$... ",
"#     .   %%++++++++++@@++..+@@%+++ ##%%@+++@@% ... ##$$$..  #$$..  ###.  ####.  ##$.. ##   ##... ###     .   #$..   .   #$$... ",
"##    ..  %%++++++++++@@++..@@@%+++ ##%%@+++@@% ... ##$$$..  #$$..  ###.  ####.  ##$.. ##.  ##...  ###    .   #$..       #$$....",
"##    ..  %%++++++++++@@+++.+@%%+++ ##%%@+++@@%#... ##$$$..  #$$..  ###.  ###$.  ##$.. ##.  ##..   ###    .   #$..       #$$... ",
"##    ..  @%++++++++++@@+++++@@%++. ##%%@+++@@%#... ##$$$..  #$$..  ###..  ##$.  ##$.. ##.. ##...  ###    .   #$..       #$$..  ",
"##    ..  @%+++++++++@@@+++++@@%++. ##%%@+++@@##+.. ##$$$..  #$$..   ##.. ###$.. ##$.. ##.. # ...  ###    ..  $$..       #$$....",
"##    ... @%+++++++++@@@+++++@%%++. ##%%@++++@##... ##$$$..  #$$..  ###.. ###$.. ##$.. ##.. # ...  ###    ..  $$..       #$$ .. ",
"##    ...@@%+++++++++@@@+++++@%%++. ##%%@+++@ ##... ##$$$... #$$..   ##.. ###$.. ##$.. ##.. ##...  ###    ..  $$.        #$$ ...",
"$#    ...@@%+++++++++@@@+++++@@%++. ###%@+++@ ##+.. ##$$$... #$$..   ##.. ###$.. ##$..   .. # ...  ###    ..  $$..       ##$ .  ",
"$#    ...@@%+++++++++@@@+++++@@%++. ##%%@+++@  #+.. ##$$$... #$$..   ##..  ##$.  ##$..   .. # ...  ###    .. #$$..       ##$ .. ",
"$#    ...@@%+++++++++@@@+++++@%%++. ##$%@+++@ @%+.. ##$$$... ##$..   ##.   ##$.. ##$..   ..    ..  ###    ..  $$..  #    ##$ ...",
"$#    ...@@%+++++++++@@@+++++@@%++.  #%%@+++@@  +.. ##$$$... ##$..  ###..  ##$.. ##$..   ..   ...  ###    ..  $$..  #    ##$  ..",
"$#  . ...@@%+++++++++@@@+++++@@%++. ###%@+++@@ #+.. ##$$$..  ##$..  ## ..   #$.. ##$..   ..    ..  ###  . ..  $$.. ##    ##$  . ",
"$$  . ...@@%+++++++++@@@+++++@@@++. ##$%%+++@@@%++. ##$$$... ##$..  ## ..   #$.. ##$..   ..    ..  ###  . ..  $$..  #    ##$  ..",
"$$ .. ...@@%+++++++++@@@+++++@@@+..  %%%@+++@@@%+.. #$$$$..  ##$..  ## ..  ##$.. ##$..   ..    ..  ### .. ..  $$..  #     #$# ..",
"$$ .. ...@@%+++++++++@@@+++++@@@+++@%%#%@+++@@ %+.. #$$$$... ##$..  ## ..  ##$.. ##$..   ..    ..  ##$... ..  $$.   ##    #$# ..",
"$$... ...@@%+++++++++@@@+++++@@@+++@@%%%@+++@@@%++. ##$$$... #$$..  ## ..  ##$.. ##$...  ..    ..  ##$... .   $$.    #    #$$ ..",
"$$... ...@@%+++++++++@@@+++++@@@+++@@%%%@+++@@@%++. ##$$$... #$$..  ## ..  ##$.. ##$...  ..    ..  #$$... .   $$.    #    #$$ ..",
"$$... ..+@@%+++++++++@@@+++++@@@+++@@%%%@+++@ @%+.. ##$$$... #$$..  ## ..   #$.. ##$...  ..    ..  #$$... .   #$     #    #$$ ..",
"$$... ...@@%+++++++++@@@+++++@@@+++@@%%%@++.   %+.. ##$$$... #$$..  ## ..  ##$.. ##$...  ..    ... #$$... .   #$     #.   #$$#..",
"$$... ..+@@%@++++++++@@@+++++@@@+++@@%%%@++  # %+..  #$$$... #$$..  ## ..  ##$.. ##$..   ..    ... #$$... .   #$      .   ##$#..",
"$$... ..++@%@++++++++@@@+++++@@@+++@@%%%@++  # #+..  #$$$..  #$$..  ## ..  ##$.  ##$..   ..    ... #$$... .   ##      .   ##$#. ",
"$$... ..++@@@++++++++@@@@++++@@@+++@@%%%@+.  # #+..  #$$$..  ##$..  ##...  ##$.   #$...  ..    ... #$$... .   ##      .    #$#..",
"$$ .. ..++@@@++++++++@@@@++++@@@+++@@%%%@+.  # # ..  #$$$..  ##$..  #$...  #$$.   #$...  ..    ... #$$ .. ..  ##           #$$..",
"$$ ..  .++@@@++++++++@@@@++++@@@+++@@%%%@+.  ### ..  #$$$..  #$$..  #$...  #$$.  ##$...  .    .... #$$ ..  .  ##           #$$..",
"$$ ..  .++@@@+++++++++@@@++++@@@+++@@%%%%..  ### ..  #$$#..  #$$..  #$...  ##$.  ##$...  ..   .... #$$ ..  .  ##           #$$..",
"$$ ..  .++@@@+++++++++@@@@+++@@@++++@%%%# .  ####..  #$$#..  ##$..  #$...  #$$.  ##$..   ..   .... #$$ ..  .  ###          #$$..",
"$$ ..  +++@@++++++++++@@@ .++@@@++++@%%## .  ####..  #$$#..  ##$..  #$...  #$$.  ##$..  ..    .... #$$ ..     ###          #$$..",
"$$#..  +++@@++++++++++@@@ .++@@@++++@%%$$ .  ###$..  #$$#..  ###..  #$...  ##$    #$..  ..    .... #$$#..  .  ###          #$$..",
"$$#..  +++@@++++++++++@@@ ..+@@@++++@%#$$ .. ###$..  #$$#..  ###..  #$...  ##$   ###..  ..   #.... ##$#..     ###          #$$..",
"$$#..  .++@@++++++++++@@@#..+@@@++++@@#$$#.. ###$..  #$$ ..  ###..  #$...  #$$   ###.. ...   # ... ##$#..     ###          #$$..",
"$$#..  @++@@++++++++++@@%#+++@@+++++@%$$$#..  ##$..  #$$ ..  ###..  #$...  #$#   ###.. ...  ## ... ##$#..     ##$          #$$..",
"$$#..   ++@@++++++++++@@##++++@+++++@#$$$#.. @@#$..  #$$ ..  ###..  #$...  #$#   ###.. ...  ## ... ##$#..      #$#.        #$$..",
"$$$..   +++@@+++++++++@@##++++++++++@#$$$#...  #$..  #$$ ..  ## ..  #$...  #$#   ###.. ...  ## ... ##$$..      #$#.        #$$..",
"$$$..   +++@@++++@++++@@##++++++++++@#$$$$...@@#$..  #$$ ..  ###.   #$..   #$#   ###   ...  ## ... ##$$..      #$#.        #$$..",
"#$#..   +++@@++++ ++++@ $#++++++++++ #$$$$..+@@%$..  #$$...  ## ..  #$..  ##$#  ####   ...  ## ... ##$$..      #$#.        #$$..",
"#$#..   +++@@++++ +++@@#$#++++++++++ #$$$$..+@@%#..  #$$...  ## .. ###..  ####  ###    . .  ## ... ##$$..      #$#.        #$$..",
"#$#..   +++@@++++  ++@@#$#+++++++++++ #$$$..+@@%#..  #$$... ### .. ###..  ####  ###    .    ## ... ##$$..      #$$..       #$$..",
"#$#..   +++@@++++  ++@ #$#+++++++++++ #$$$..+@@%#..  #$$..  ### .. ###..  ###    ##    .    ## ... ##$$.       #$$..       #$$..",
"#$#..   +++@@++++  ++@ ###.++++&+++++ #$$$.++@@@#..  #$$..  ### .. ###.   ###   ###    .    ## ... ##$$..   .  #$$..       ##$..",
"#$#..   +++@@+++.  .+@ ###.++++&&++++@#$$$.++@@%%..  #$$..  ##$ .. ###.   ###    ##    .    ## ... ##$$.    .  #$$..       ##$..",
"#$#..   +++@@@++.  ..   ##.++++++++++@#$$$.++@@%@..  #$$..  ##$ .. ###.   ###   ###    .    ###...  #$$.    .  #$$..   .    #$ .",
"#$#..   +++@@@++.  ..   ##+++++++++++@#$$$+++@@% +.  #$$..  #$$ .. ## .  ####   ###    ..   ###...  #$$.    .  #$$..   .    #$ .",
"#$#..   +++@@@++.  ..   ##+++++++++++@ #$#+++  #@..  #$$..  ##$... ##    ####   ###     ..  ###..   #$$.    .  #$$..        #$ .",
"#$#..   +++@@@++.      ###+++++++++++@@#$#+++@@# ..  #$$..  #$$..  ##    ####   ##      ..  ###...  #$$.    .. #$$..       ##$ .",
"#$#..   +++@@@++.       ##+++++++++++@@#$%+++  # ..  #$$..  #$$... ##    ###    ##      ..  ###...  #$$.    .. #$$..        #$ .",
"#$#..   +++@@@++.       # +++++++++++@@##%++.  # ..  #$$..  #$$... ##    ###    ##      ..  ## ...  #$$.    .. ##$..        #$ .",
"#$#..   .++@@@++.       # +++++++++++@@%%@+++ ## .. ##$$..  #$$... ##    ###    ##      ..  ## ...  #$#.    .. ###..        #$ .",
"#$#.    .++@@@++.       #@+++++++++++@@%%@++.  # ..  #$$..  #$$... ##    ###    ##      ..  ## ...  #$#.   #.. ###..        ## .",
"#$#.    .++@@@++.      ##@+++++@+++++@@%%@++. ## .. ##$$..  #$$... ##    ###    ##      ..  ## ...  #$#.   #.. ###..       ##$ .",
"#$#.    .++@@@+.       ##@++++@@+++++@@%@@++. ## .. ##$$.   #$$... ##    ###   ##       ..  ## ...  #$$.   #.. ###..       ##$ .",
"#$#.  # .++@@@+.       ##@++++@@+++++@@%@@++. ## .. ###$.   #$$..  ##    ##    ##       ..  ## ...  #$$   ##.. ###..       ##$ .",
"#$#.  # .++@@@+..      ##@++++@@@++++@@%@@++. ## .. ###$.   #$$... #$    ##    ##           ## ...  #$$.  ##.. ###..       ##$ .",
"#$$.  # .++@@@+.       ##@++++@@@++++@@%@@++. ## ..  ##$.   #$$... #$.   ##    ##           ## .... #$$.  ##.. ## ..       ### .",
"#$$.  # ..+@@@+.       ##@++++@@@++++@@%@@+++ ## .. ###$.   #$$... ##.   ##    ###          ## .... #$$.  ##.  ## ..       ##$ .",
"#$$.  # ..+@@@+.       ##@+++@@@@++++@@%%@+++ ## .. ###$.   #$$... #$.   ##    ###          ## ...  #$$.  # .. ## ..       ###..",
"#$$. ## ..+@@@..       ##@+++@@@@++++@@%%@+++@## .. ###$.   #$$... ##    ##    ###          ##....  #$$. ## .. ## .        ##$..",
"#$$. ## ..+@@@..       ## +++@@@@+++++@%%@++++ ##.. ###$.   #$$..  #$.   ##    ###          ##....  #$$. ## .  ## .        ##$..",
"#$$. ## ..@@@+..       ## +++@@@@++++@@%%@++++ ##.. ###$..  #$$... #$.   ##    ####        ###....  #$$. ## .. ##          ##$..",
"#$$. ## ..@@@+..        ##+++@@@@@+++@@%%@++++ ##.. ###$..  #$$... #$.   ## .  ####    #   ###....  #$$. ## .. ##          ##$..",
"#$$. ## .. @@. .        ##+++@@@@@+++@@%%@++++@##.. ###$..  #$$... ##.   ## .. #####   #   ###....  #$$. ## .. ##          ##$..",
"#$$. ## .. @@. .@       ##+.+@@@@@+++@@%%@++..###.. ###$..  #$$..  ##    ## .. #####   #   ###...   #$$. ## .. ##         ###$..",
"#$$. ## .. @@...@       ##+++@@@@@+++@@%%@+++ ###.. ###$..  #$$..  #$    ## ..  ####   #   ##$....  #$$. ## .. ##.         ##$..",
"#$$. ## .. @ ...        ##.++@@@@@+++@@%%@+...###.. ###$.   #$$..  ## .  ###..  ####       ##$.... ##$$. ## .. ##.         ##$..",
"#$$. ## .. @ ...@       ##..+@@@@@+++@@%% +.. ###..  ##$..  #$$..  ## .  ###..  ####       ##$.... ##$$. ## .. ##.         ##$..",
"#$$  #$...   ..+@@      ##+..@@@@@+++@@%% ... ###.. ###$..  #$$..  ## .  ###..  ####       ##$.... ##$$  #$... ##.        ###$..",
"#$$  #$...   ...  @     ##...@@@@@+++@@@# ... ##$.. ###$..  #$$..  ## ..  ##..  ###        ##$.... ##$$  #$... # .         #$$..",
"#$$  #$...   ..   .     ##... @@@@++++@%# ... ##$.. ###$..  #$$..  ## .  ###..  ##$       ###$.... ##$$  #$... # .         #$$..",
"#$$  #$...  @..   @     ##... @@@@++++@%# ... ##$.. ###$..  #$$..  ## ..  ##..  ##$       ###$...  ##$$  #$... # ..       ##$$..",
"#$$  #$... @@..        ###.   @@@@++++@@# ... ##$..  ##$..  #$$..  ## ..  ##... #$$     # ###$...  ##$$  #$... # ..       ##$$..",
"#$$  #$... @+..         ##... @@@@++@@@@# ... ##$... ##$..  #$$..  ## ..  #$... #$$    #% ###$.... ##$$  #$... # ..       ##$$..",
"#$$  #$... @+..         ##    @@@@@@@@@@@ ..    #... ##$..  #$$..  ###..  #$... ##$    ######$.... ##$$  #$... # ..       ##$$..",
"#$$  #$... @+..        ###    @@@@@@@@@@@ ...  #$... ##$..  #$$..  ###..  #$... #$$    ######$.... ##$$  #$... # ..       ##$$..",
"#$$  #$...@@+           ##   @@@@@@@@@@@@ ..  ##$... ##$..  #$$..  ###..  #$... #$$    ######$.... ##$$  #$... # .        ##$$..",
"#$$  #$. .@@+          ###   @@@@@@@@@@@@  .    #..  ##$..  #$$..  ###..  #$... #$$    ######$.... ##$$  #$... #...       ##$$..",
"#$$. #$. .+@++          ##   @@@@@@@@@@@@@ .    $..  ##$..  #$$..  ###..  #$... #$$    ######$.... ##$$. #$... #...       ##$$..",
"#$$. #$..++@++          ##   @@@@@@@@@@@@@ .    $... ##$..  #$$..  ###..  #$... #$$   #######$.... ##$$. #$... #...       ##$$.."};
