/* XPM */
static char * slot_xpm[] = {
"64 64 125 2",
"  	c #484D7F",
". 	c #494F82",
"+ 	c #4A4F83",
"@ 	c #4B5084",
"# 	c #4C5185",
"$ 	c #4B5185",
"% 	c #4B5184",
"& 	c #4A4F82",
"* 	c #494E81",
"= 	c #484E80",
"- 	c #484D80",
"; 	c #474D7E",
"> 	c #494E80",
", 	c #4A5083",
"' 	c #4C5286",
") 	c #474C7E",
"! 	c #464B7C",
"~ 	c #454A7B",
"{ 	c #3F4677",
"] 	c #3C4377",
"^ 	c #4D5287",
"/ 	c #494F81",
"( 	c #4B5083",
"_ 	c #474C7D",
": 	c #464C7D",
"< 	c #464B7B",
"[ 	c #464B7D",
"} 	c #3F4575",
"| 	c #3E4575",
"1 	c #3D4478",
"2 	c #4E5489",
"3 	c #4D5388",
"4 	c #4C5287",
"5 	c #3E4475",
"6 	c #3E4474",
"7 	c #3D4479",
"8 	c #4C5186",
"9 	c #4E5389",
"0 	c #3F4576",
"a 	c #3C4378",
"b 	c #3E457A",
"c 	c #4F4D4D",
"d 	c #504E4E",
"e 	c #514F4F",
"f 	c #525050",
"g 	c #515050",
"h 	c #535151",
"i 	c #4F4E4E",
"j 	c #4E4C4C",
"k 	c #4E4D4D",
"l 	c #504F4F",
"m 	c #4D4C4C",
"n 	c #4D4B4B",
"o 	c #4C4A4A",
"p 	c #4B4A4A",
"q 	c #3D457A",
"r 	c #3D4579",
"s 	c #4C4B4B",
"t 	c #3F4577",
"u 	c #3C4376",
"v 	c #525151",
"w 	c #3B4276",
"x 	c #404678",
"y 	c #404677",
"z 	c #3C4478",
"A 	c #3B4275",
"B 	c #535252",
"C 	c #4A4949",
"D 	c #4A4848",
"E 	c #4B4949",
"F 	c #414779",
"G 	c #484646",
"H 	c #494747",
"I 	c #41477A",
"J 	c #404778",
"K 	c #494848",
"L 	c #3A4173",
"M 	c #3A4174",
"N 	c #3A4073",
"O 	c #3D4373",
"P 	c #3E457B",
"Q 	c #3E467B",
"R 	c #3F467C",
"S 	c #3F477D",
"T 	c #40477E",
"U 	c #40487E",
"V 	c #40487F",
"W 	c #3F467D",
"X 	c #40477D",
"Y 	c #545252",
"Z 	c #484747",
"` 	c #555353",
" .	c #545353",
"..	c #3B4174",
"+.	c #565454",
"@.	c #3D4374",
"#.	c #42487B",
"$.	c #41487A",
"%.	c #42497C",
"&.	c #43497C",
"*.	c #33375D",
"=.	c #33385D",
"-.	c #34395F",
";.	c #32375C",
">.	c #32365B",
",.	c #32365A",
"'.	c #31365A",
").	c #303559",
"!.	c #303458",
"~.	c #2F3457",
"{.	c #313559",
"].	c #33375C",
"^.	c #34385E",
"/.	c #303558",
"(.	c #33385E",
"_.	c #32375B",
":.	c #353960",
"<.	c #35395F",
"[.	c #353A60",
"}.	c #363A61",
"|.	c #363B62",
"1.	c #353A61",
"2.	c #43497D",
"3.	c #31355A",
"4.	c #3E467C",
"  . + @ @ # $ # # # # % @ & + * = - ; > * & * > * * = * & + * > * * > >   > , @ @ # ' @ & * * * = ) ) ! ~ ! ! )   = * *     ; { ",
"] & $ ' ' ' ^ ^ ^ ' ' ' # $ @ & / * * / * / . / / * / & , + * * > & * -   / ( % $ @ % , & = = * > _ ! : < ! [ )   = *   _ ; } | ",
"] 1 , # ^ ^ 2 3 ^ 4 4 4 ^ ^ # % @ & * / & + @ , , , @ @ , + , & & , . / & , @ @ , + + , & * * =   ; _ ) ! ! _   =   = ; _ 5 5 6 ",
"1 7 1 , 8 ' 3 3 3 ^ ' 3 9 9 3 8 @ + & & & , @ $ @ @ ' 8 % @ , , , , ( & . , & & & & & @ @ , & /     )   ) _       )   ) 5 0 5 5 ",
"1 a 7 b c d d e e f g f h h e d i c c j j k c l e e f e e e d d d c k m n j j k k c c i d c c c j n n n n n n n o p o o 0 0 0 0 ",
"1 7 7 q j j k c l g f f h h g e d c c j n j c e f h h h h f e d c c j n n n n j c c c d i i i c j n n m j j m n o p o o 0 6 5 0 ",
"r q 7 a n n j j i d e e f f g g e d i c c d e f f h h h h f l d c j m n n n n j j j c c i c c c j n m j c k n o s s o o 5 5 0 t ",
"1 1 ] u o n j j k c c d e e f g g e e e d e e e f h v f f e d c c j m n m n m j n n j k c c i c c c c c i j n o o n s o 5 0 0 0 ",
"1 a w w o n n j j j c d d d l e g f f f e e l e f h f e d d c c j n n n n n p p o o s n j k c d d c i i l c j j n m m n { x y y ",
"z a w A o n n n n n j j j c i d e f v f f e e f h B f e d c c c m o s n n o C D D p E p n j k d i d d d e l c c c c j j x F x y ",
"] ] w w s s n s s n n n n m c d e g v h h f f f v h f e d i c c j n o o o o D G H E C D s n c d d e e e f f e l e d c c I J x y ",
"] ] a ] n n s o E E p n m j c i e g v h v f e f f h h e i i c c j j n o p E K H H D E E n c c d f f f f f e d d e e d c F x y { ",
"a z ] ] s o E p E p o n j j j c d e e e e f e e f h f e i d c c c j n s o o D D D p o n j i d d l e f f e d d d d d d c x { t 0 ",
"] ] w A o o o E E s m j j j m c d l l d d e f e f h e d e d c c j j j j n n o E E o j c c c i d i d e e d c j j c j j k x 0 t } ",
"A ] w A E p p E p n j k j c k c i c i d c d e f g g e d d d c c c c c j j m n o p n j n n m j j c d l c j j n j j j n m x t 0 0 ",
"A u A L K C C E p n m j j c d d c c c c c d e e e d d d i c c c c j c c j j j n n n n o o s o n j c d j m s o n s n s s t 0 } 0 ",
"w u w L D E E p o n j j k c i d c k j k c d e d c c c i k j k c c j c c c c j n o o p o o p E o j j c j n o p o E E E o 5 6 5 0 ",
"w u w w E E E p o j c c c c c c c j j j d e d c c j c c c k k c j k k c j j j j n E p o p o p n j c c k n o o E E C E p 5 5 0 0 ",
"w ] ] u p C C o m c d d d c c c c j n j c c j j m n n n n j j j j c c c j j j j j o o E p s n j m j c j n o o E E E E E 5 } { 0 ",
"] 1 ] A o E o n k c i e d d c k c j j j j n m n s E E p n n n n j c c k c c j j j n o p s n n n n j c j m s p E p p p o 5 5 0 } ",
"w ] ] w o o n j c c d l e d i c c j j n n n n o E E C p n n n n j k j j k c c c j n o o E E p p o j j j n s E p E p o o 5 y y 0 ",
"M u ] a m n j c d e e e e e i c j s o o o n n o p E E E o n n n n c j k c d i c j m s o p p p p s m k c j n o E E o o s { x { 0 ",
"A w a r c c i l e e e e e e c m s E p p E o n n o o E E o n o n m j j j c c d c k j n o E o o o n j c c j s E E C E p o 0 0 0 t ",
"w a 7 q c d d e e e l d l d c n o E p o o o n n n o E C E o o n n m n j j c c k j k n s o p E o j k c i j o E D H K E o y 0 0 x ",
"] a 7 7 j k i d d l d d i c j j n s o s o o n j m n o D C E p o s n n j j j n n n k j n n o o n k d d d j o p D D C o o 0 0 y x ",
"w u ] ] s m j k c c d d c k j n n n n m n m m n n o o C D K E E o o n m j n o o n j j j n n n n c d l c j s s o p o o p 6 0 y y ",
"A u ] ] s o s n c c d d c m n n n j j j c j j n n s p D K D E E p o m j m s o n n n n j j m n n c d e c j s E o s o o p } t 0 0 ",
"L u a ] s o o n j k c d i j n s n j c i d i c j n n s E E D E o o n n m m n s n o o n j c j j j c d d c j o E o n o o o 0 0 0 0 ",
"L w ] ] s E o o o m k i i j m n m k d e d d i c j j n n o E s m n o s n n n j n o o n m c c c c i l d d c n n n n n o o 5 5 0 { ",
"N A ] 1 s p E E E n k c c c m n n k c d d d c j j m j j m m j m n o o n s n n n s o n n c d d c c k k c c j j j n n o o 5 6 0 x ",
"M w ] ] o E D K D p j j j j m n n k i c c i j n j k k c c j c j m n n o o m n s n m j k c c c c c j j j j j j m s s o p 5 5 | 0 ",
"] ] ] ] p D D D D E n j j j c j j c d c j c c j j j j c j j c c k j n o o n m n n j j i d k n n j n n j m n j j n E E E 6 6 O | ",
"7 7 7 1 o D D D E p m j j j j j k c d d c c k c k j j j j c d d c j n s n o n j j k i e d k n n s s j j n j j j o E E C 5 5 5 5 ",
"7 b 7 7 s o o C p n m n j m n n m c l l l c d d c c j j j c d d c n n n s s m j c d l e d c m s n n n n j j j k n o p o 0 y { 0 ",
"b b b 7 n n n o o p p s n n n n j d e e f e e e c j j c c c i i c j n m n n j c d e e d c j n n n s n n j j c k j j n s 0 x y 5 ",
"P Q R P j j j n o E E E E o j m j d f f h f e d c j k k d c d d d c k j m n j c e e e c j o n o o s n n n n n n n n n s 0 { t 5 ",
"R R R P k j n n p E D D C o n j c d f h h h e e d i c d d d l l e d i j n n j c e l d j n s o o o o o o o o o p p n n n 0 t 0 0 ",
"S T T R c j o E p D K D p s n j d e e g f f g e l e e l c d e e f l d c j n k d c c j m n n p E E C D D E C E E o n n o } } 0 0 ",
"S U V W c n E E E D C E o n j c d e d e e g f e d e e e d d l e f e d i c c d c j n s o o s o E C D H H K H E E o n n p 0 0 } | ",
"X S X R c n p D D E o o n m c d e d d i d d e f e e f f e e e f h f e d d l d i j o o o p p E D D D D G G D E E n j m o 0 { 0 0 ",
"P P Q Q c j o E C E E p n j c d e e d d d d e h h h h f v h h h h f e e d d i k j n n o p p D H K D C H H D p o m k j n y 0 0 { ",
"z 7 7 q j j j o o p E p n j j d e e e e g f h h Y Y Y Y Y h h h f f e d c c j n n n n o o E D Z D C C E E C E o n c j j x y t 0 ",
"w u 7 7 j j j m n p E n n j c d e e g e e f h h Y ` `  .h h h h e d d i c c j s s n m j n o E D E C C E E p E o j k j c I J { 0 ",
"..w u ] j j c c j o s m j c d l e e f h f h h Y ` +.+. .B h f f l c k c i c j o E o n n j n o p o p o o p o o n j i d c F x x F ",
"A A w u j c i i c j j c c i e e f e f h h h h Y ` ` ` Y h e e e d c k j c i j o o s s o s n j n n o n n n m n j c d c c x y x x ",
"A w ] ] j c i i d d l d i d e e e e f f v f h h B Y Y B h e e e l i c j j c c j n s o p o n j j j j m j m m m j c c c c x x J x ",
"M w a 7 k j c j k d d i c d l l e d e g e e f h h h h Y h f e e e d d c c c c j n n o o n m c c j c k c j j m n n j c c F y x J ",
"u u z P c c j n m j j c c d c c c c d l d l g f h f f h f f f e g e d d d d d j n s s o n c i c i d d d c c n o n m j j x { x x ",
"] ] 7 P c k j o o o o m j j j k j c d d i d e e f e e f e f f v f g e d d l d j n n n n j c d d e e e e e c j m n n n m y y y y ",
"] w ] 7 j j n E C E E n m m j n m j k c d e e d e g e e e e e e f g l d d l d c j n j m j j c c d c i l e i j j n o o o 0 0 | | ",
"] w ] 7 j n p p E C E s s s n n n n j j d e d c i d d d d d d i e f l d l e e i c j k j m j j c c c c d i k n n o C D C 5 6 @.O ",
"a ] 1 7 j j o C D E E p E E s j j k j k d e d d c d c c c c c c d e e e e e e d d d c c c j j k k c c c c j n n p C C E 5 6 O O ",
"] ] r q c j s p E E D D C E s m c c c c d e e l d c j n j c j j c d l e e e f g g e d c c j j j j j c c j k m n o p E E 0 0 6 @.",
"w a 7 7 j j n n E D D D D E o n c d d c d d d e d c n s n j n n j c d e e e f f f f e d d c k j j j d d c c j n n n o E } 0 5 6 ",
"w a q q c c m n E E C D D p o n k j c c c d d d d k n n n m o o j j d d f f f h h f e e e d i c j c d l d c j n j o p o { x y 0 ",
"] 7 b b i c n n o E D E o o o o n m j c i d d d i j n n n n n n j j d e f h Y h f e e e e d i c j c e e d d c j j o o s x F J x ",
"u 1 b Q d c j n o p C E o n s o s n j c c d d d c m s s o o o n m k d e f h h h f e e l e l l d d d l d e e d i k n s n F I #.$.",
"w ] 7 b i c j n s s o o o o s s o o n c d e e d c j n n s o o n n j c l g f f f e e l i c d d c c d c d l e e d d c k c #.#.#.$.",
"w w 1 7 k k c j m j n s o s o p E o n c d e d c c c k n p E p o p n c i e l e e d d d c c k k c i d c d e e e d l l d d %.#.I F ",
"A w a a j c d c j j n o o p C D D E s k d d c j j j n o D K E E p n j c d i d c c c c k j n n j c d d e f f f e g e e e &.#.I $.",
"u ] 7 1 *.=.-.=.;.;.>.,.'.).!.~.~.{.'.].^.-.^.].;.>.>.'.{.).{./.{.>.=.^.-.^.(.*.;.].(.=._.,.>.;.^.:.<.[.[.}.|.}.1.[.[.[.[.2.#.#.",
"] 1 7 ].*.*.^.^.*._.'.3.{.{.).!.!.3.,.].=.^.(.]._.>.>.>.'.{.!./.{.>.=.=.^.=.*._.>.>.*.=.;.>.>.].^.^.-.-.^.:.1.1.-.^.-.:.1.[.%.#.",
"q b =.].*.(.^.^.*.>.3.'.>.>.>.'.>.>.>.;.].^.^.=.>.;.;.;.>.3.{.'.'.>.;.=.^.=.*.'.3.3.>.;.;.>._.].].(.^.(.^.-.:.:.^.=.^.-.[.1.[.2.",
"4.-.^.^.^.-.-.-.(.>.'._.].;.].].>.'.'.>.=.^.^.].].].*.*.;.>.3.,.>.>.>.].(.(.;.3.{.3.,.>.>._.>.;._.].;._.*.=.^.-.^.^.^.:.1.1.1.|."};
