/* XPM */
static char *result[] = {
/* columns rows colors chars-per-pixel */
"128 128 90 1 ",
"  c #564F45",
". c #584F43",
"X c #575047",
"o c #5B5246",
"O c #5D554A",
"+ c #5F584E",
"@ c #60574C",
"# c #62594D",
"$ c #695E4F",
"% c #655D52",
"& c #685F52",
"* c #676056",
"= c #6A6255",
"- c #676158",
"; c #6C6459",
": c #6F685C",
"> c #7B6C57",
", c #71675A",
"< c #766B5D",
"1 c #796E5E",
"2 c #7D715F",
"3 c #6F6960",
"4 c #746D63",
"5 c #796F60",
"6 c #767066",
"7 c #7C7263",
"8 c #767269",
"9 c #7C756A",
"0 c #7F786D",
"q c #7F7970",
"w c #816F58",
"e c #85755E",
"r c #88765E",
"t c #8A785F",
"y c #837663",
"u c #887760",
"i c #877963",
"p c #8B7B63",
"a c #817768",
"s c #847B6C",
"d c #8B7E6B",
"f c #907E66",
"g c #907F68",
"h c #847E72",
"j c #897F70",
"k c #8E8066",
"l c #8E816C",
"z c #928166",
"x c #9A8564",
"c c #958961",
"v c #9C8967",
"b c #93836C",
"n c #98876D",
"m c #97886F",
"M c #99886F",
"N c #9E906B",
"B c #868175",
"V c #8B8274",
"C c #878278",
"Z c #8C857A",
"A c #8E897D",
"S c #928673",
"D c #958874",
"F c #9A8A71",
"G c #908779",
"H c #928A7D",
"J c #998E7C",
"K c #9F9076",
"L c #9C907D",
"P c #A78D67",
"I c #A28D6B",
"U c #A49363",
"Y c #AD9166",
"T c #A79068",
"R c #A8916D",
"E c #A08D70",
"W c #A29175",
"Q c #A19179",
"! c #AA9979",
"~ c #8F8A80",
"^ c #938D82",
"/ c #988F81",
"( c #969085",
") c #9A9285",
"_ c #969188",
"` c #9B9589",
"' c #9E988C",
"] c #A39783",
"[ c #A59A86",
"{ c #A0998B",
/* pixels */
"ACBCBhh006sAZVZVBBZsVH^`HVjjChshjhhjjhG/jCGGqajhjCG~~aqhhj~jhhaahhhh~~jhjjaZhZhh00Z0BAABCCZACB0BA)(AA)CCZBBhCVAAqCBBCZBABZhZBC0h",
"JHHHHHZVVh6sZ00sBVBshVVjCVsjsshhshahjqqjaqqaaCjqjqaajjjChah8Zj/hC~hhjh~hj_Zh~hZGHHH((HHAHJA(HH(J((()L(J((JHHJ(J(JHHAHHH()H(HHAZA",
"iuieeewwwk900BCAsHHH^^^/^^HZZGHZG~~~~~/~~G~G~GG~~/~~]/~~~^^/~~~~A~~~/~~A_^aq8jdyieeittieiktiktkepikippkipeptdpdpieeieekekikeeeee",
"eieeeer>22<BVVhVddidgddddpiyyyiiuyyuusuuyayyyyyyysgsgddaisdpsgiiyiaigydsjij^~suuekitiikttitiiiitktikpppipeiiepptieyee2ikkeiieke2",
"eeee>ee>>w1B0B4diispdddSguuyyiiiuauuygdydyyyuuyududdggdaidddddiiyiyddyddiddhhydiiieiikekiiiikiktpipppipikeipitpiept2tektkikkke2e",
"eee1e>>w2w1VAB6ddsppddgddddyiisiuydayaugduuyauusydauggjuudadiaaiadyaddiddidshyiukeeeeeketpekkiikipppipktkteetipeetieie2kieie2eee",
"eeeee1e>2w<BVB6dddpdgldgddduyeiiudddyyadudwyusuudyddudduadaddgadyyyudydddiishiupkteik2keikeitiiipkpiikepiieetipeitee2eekk2i2ee2e",
"2yeewee>2e<0GV6ldudlbdSdgdgiyyyyyyduyuugyyyaauusduudadddipddiyiiydyddyididdhhiduiikeikektiitettiitpiietik2eekteiite2etiitekeeeee",
"eeeee2ew2e1HZ07ljggGggjgdgdeeyyyuyyyuyaauyuaududayddydgdyddudiidysiiddsizdddhiduik2k2kkeeiieeeieitkik2tikeiikieeeee22eeeieeeieee",
"eiiee22wwr1BVV8lgGggjjgggddyeyyyauuyyyuuayuuuauauddydddyaddddaiaidisdpddkidsCapikekek2eeeieeikeiipitieettetikieieekeeeikieiik22e",
"ieeieeeeek60VH6djgjggJgjgdgeywwyauyyuuaguyuaagudydyugddysgagdpgaddiidiiddsdsBipekikekeeeeeeeeeeetikeieeeektikiiek22eekeik2kkeek2",
"epiueeeiei1BVA8ljgggjggdjddyyyyyuauuaudayyuauaudduydgdddaagdaiiudysiddiddibdBdduiekee22reeeieeieiekit2kkiitktkiiekeke22kekkikkee",
"epipeetiei2ABA8lgggjuggdddwyyyuyuyuyyyydyudydugayyddggduggddddyddddydiiddiddBdpikekkeeeeieeieeieeiiteei2kipiktkeieitiitiiikikeii",
"iueitiieti6CVB9ljggjddudduyyywuyyyyduyuudyyuagaguyauuddygadjaudddidddssddddBBipiikkeieeeiecekeieieekkikeetpeiiitkikitiikkkikeiee",
"epeeeeeeei7(BH7ljggjdduddwyuuyyugdduuyudyddudagadudgjsgddgdddddddddddidididsBdkuekikiic7iieeiikieeiieiieiiikkkiiktiikikkikakkek2",
"pteeeeyett6sBV8ljgjgddgdddyuyyydjdududyyuygadudddjgjggdddagddddyddddliidddlsBippkekikiiiieieeieekeeiieeeittitiptikkkpikikikkkkek",
"txpeeeexeu5hjs8jggjgddgdupiiiiidddpipiyyyugggddudddgddli0kllkkskdddlsdidlddBBippppkpptpieiieeeekieiiieeetietppipiitkkeikkdkpikit",
"ttteeirieu4Z^H8gjgjgdddddpiiiiyiddpudiduudddgaddbdbdkdddkslkBVkVldllldddRlzzhypdppppeipzkikeieiekittieeeeeiiiieikikiiekiiipkkiii",
"eeeeieiiu>6ZjZ4ydgjgdidddpuuduudduddpspdudugggggSddlddplkBllklSklllllddllbk7657uppuittitkikikiikeititee2eieitiiiekekikkktkkkkkte",
"####&%&&@:shh^^3%==,&%%%&#%@ooo@&%&&&&%%%%&&==3;;&====***#**;;;*==*;=;=*-%<CBq<+====*$****+%ooo+#*$=*#*###$$**%%*#**%%*-***=-=-#",
"0096CZhhhCjHhhGhjAhhjChhChZhjjahjhhahaasjsahCZhZ^CZZCZBhBAHBBBAhAZZ^ZZBCBBAAH`HABBCCHB~CB~C0BhAqZCB0B6696q8BZqhqCZCBqBhC~BAZBB90",
"l9qBhhqqahhZZaaZhhCjhChhhaaahhCj~AhhZhZhah~hCCZjZhHZVBH~B9B0BAhCZ~BBZ(^ZVHAABAC0BBCC0BB0hBBBBVACHC0AC~CCZZqq0CC~B0CABq0qBABZC(AC",
"LH(A/^^/^]^_/`/(//^/_//~~^/hhhaC~~~~^~/G~~~/]~_~)^[_(((A~~A~H(HH(^^^__^(((()((((A((H~A~^^AAZhZVhA^(H(((H(HHH^A^^(__(_(^^^(`````(",
"dduddgddidddjgggdddgggjggggjG~ha55y555554w4wwa4<577y726711<117077777y9y7779777771779727622hh(hABGkllllkaklakddlllllllllllVDlDSll",
"kddbdMpdddggggpddpgddddgdggddCwa51wy45w5114w11<1551iy555<<<<27777777y7797k777977177261221218C0B9llllkkdddppsddllldldddllllSllSlb",
"pdpdbbdpdgigdjipdggguggddgjuajw31155w<<511111<<511<77555<<<1177a777779i7y777772i626121776178CZJ9lllllkddpdklpdllllllldllllSlSbll",
"ddpdddbdgggggddduggggdugggggjj4w115555551111<1<55<<y7551<<<ei1777777Nia7y777777i262227712228VhB6llllklzlkdpdklVllllldlllllSllmll",
"dzdkdbbgjDgggdpgdgdggudgdgdudhy458w5yyy5u114w1<55<<77511<<e<c1717522aki797722277127167226298hZh8llllllllddddlbblddlllllllllllNll",
"dbblgSgS/ggjgggggjdgfuddddggdjyw45w555yw5<1<e<<<1<<<1511<<U<12i77762777772262177171727162728hVB9llllllblldddllmldllllddklllllDll",
"dbVbbbSbggg/gdddggpgddugggggjCyaw455w53<1,<<<<<5<>,<111<<<<cc1a27777777772717777176121<122<80LH9llSSSllddkkdkllSlllllddlklVlllll",
"dbbSdSblgggjgggjpgpdfuudggggjZawy4w55455w<><1<e51<,<111<<<1147277727y72211117721171161116218B0A9kbbllkllddlkllSllSlSldkMlllllldd",
"dkbSbbSb/gggjggpdgdddudgdgggjCa45w84w5545<,<<<<<<1<<<1<<:<<<1c67777279y717177772121111111248ZBB6lllbSVlblllllllmllSllllzlllklldp",
"dlSbSSbbSbblddgdgjgdppdgggggjjj55w77y55555<<<555<21<<<><<,<<171171117aa26227721111:111121126VAH8VbbVbllbllllVblDbDllkdSdddkdkddp",
"gbSbbSDkgSgddddgggddgdggggggjjiy55a555<e5555w55<<1<<<><,,<,<26111141272417727216111111<<22180C09ldlllbbVSbbllblSVbSllllddbpdddpd",
"lbSbSbDlSldbdbgkgdgipiggggnnjjy555y55y555555553<<1<<<,<,,<<<1111i7412226272677121241144111180BA9blbSlllSSllllbllblmlldpddpdddkdb",
"lVblbSbldbldbdddddgddpignnngjjy<y5y5y555w5555w<<<<1>:<<<<<<<17167711261172717211112422121018VVB7lllblllbbldllllbVbSlllkdpddddddl",
"lSVbbVblbddddgddddgggiggnnngSGy555w7775yw555555<1<<<,<<<<<<<121177<<6212216<1621126117191218A`L0bllllkVbSldkkldSbDVbllkddpddddll",
"lbbSbbllkdbdpdddgdigggdggnnnGj555ya5yai5555555<<1<<<,<<<<<<<1211777<211111121711177717772628DH)0lllllSbSlldkdkdbbbDllkddddpdpbdl",
"lSbbVlSldlbddbgddddggiignFEFjh555waa5y55a55<555<1<<<<><<<<><6611<7<12621<4111161777127727724ZCB8SbVbbVlblllldbkVVbDmVklddbdldbbl",
"bSVbbbbldldpbddgdggdggggFFnga6;<55y55a5y5y5555w<<11<<<<,1<<<2211777<111<<17111227a77277297:6VVC97bblbbbVblSlbdkkmlVbblldddpdlbdl",
"+#++++++@@+O#OO+@OOOOOXO#$&aZ/h4oooOOoOoOXoooXOXX XXXXo XXXXOOooXOOXOXXXXX$XoOXOoOOOOOXOO-3^VZAH6:O+##+++O+++OO+++++++OOO@Oo+o++",
"(VHCVCVVHHBVAHZhhhZhjjAj]J/J/jsGhAHH(^^/GJFshhhZBGGs0B200BBACABB0BCLhBBABB0VBBB00BZCHB0CZBAAHBCVAAB^BhA^ZZsZ00BAH(HAZAZBBsB(AZ^^",
"VAHHAVBBhHhZVVshhhjjhhahgJjjjjjjlVHLZZj)GGhhHjjhlCBBC7BBBBlCAZZV90hAHBZhHAA0AVZZBBBHBAAAHZZhB(HZhZhVAZ^)^AZBABhZABBVCVVs0VBsVVsC",
"AHZ(CHB0VHhZAAVVhasjaaa8jJ/GjZjjVZVZHZGG^Z]^jZhhB00B0BB00BHBBCBBhZBA00ABBCHCBVBZHABhBCAHZAhjA(GHHA^AZAVZChAAqVhhBGBBCAC0sVZZC0BC",
")(H((HHHHH(H^(HAj//H/j/gJ]/]g!Q/^)J)//))J/GG//HGHAAJGG0CB0l0CZB((([JLHH(()()(``)^((_LL'`){)```]``))))){{'))`))))(`(`)(BAVBBBCsAA",
"kktkitkeitteuueerurwuuuwwftuftfruppfftftrutrufeuteeetrelsB0BBDzbcmkkcVVclbzzzblzlcbbcZmmDnznnbMMmmbbmDMFDmmbbmzbnbbnmmzFCBBBltee",
"kkkkeeettiptpteeurrruurrrrttttrtttpffYtfuptfppeutekeeeee8HVC9bbbbgkkmbckzmbzzzzblblmmmmmnnnnnDMmmmbbmmmDmmbnDmbbzKNmmzbzsZA0itpi",
"iiktktittkptteeewrrruurrwrufttrttftfftpftpputueueeeeetee90VV9bbzbbkbblklzbzbzbkkkbcVmmmmDbnnMmDnmmbmmmmFmnbmbmbzmmzmmbnzBAB0tiet",
"ktikttittikiteeeeetterterrrftrtttttfttftftttptrprruueeee7CBB7zmzbbzbbbbbbbbzbbbbbbbmbDmFmFmFFmMmMDnbmmmDmmbnbnnbzFmmmnbbdB~9utei",
"kttkkttiitttttreeretrererwrrtttttftftftftttptrtpreuuuuee7CBB9bbbbppzbbfbbbbbbbbnbmbmmmMMFFFFFFFFFDbbmmnnnbbnmmnmmFmmmmmnhhh7dpte",
"iktkkikektiteteeereerrrerwrtrtttttttttffpftttrttreruteee7BAZ9zbbmbbbbzbnmbbzmbbbbFmbmnFFMFFFFDFFMEEnnnbmbbbDDImMbmmmmbDzs^Z9pkee",
"ikikttktittetieeereerrerrrtffttttftfttffpfttfttterrrepee7C0Z9bbmmbbbbbzbbnbnnnbmmbbnmMDFFDFWEFFFDWnbnbbnmmnnmFMMmmbbnnnnVB~0iptp",
"tktkitititeetteertrrrrrrrrrttrftfttttfffxxtzztppteteetet7AAB9zbmbbbbDbzbnbbnmmbDDbmDFFFFFFFFFFFMMnnbnbbmmMnnmmMmMmnbDnMmBCZ0titt",
"kpkpktkittteeteertwwwrrwrrrrtftrttttpfffztvTftttteeeepee90Zh9mbbnbbbznbDbbnbbmnmbmmmFFFFEMFFEFDnmnmbnznbMMnDDnnnmmnmnnMMlC(0kpet",
"tippktttztteupterrrrrwrrrrrrtttffffrtfffpftfftpptetteiee7CBZ8bbbzbbcnnbnMbnnmbbnbmmDFFFFFFFFFMnnMzznnbnbmDnnnDmDmMMMmmMm0C(0ikke",
"pkpktitktpieetterrwrrrrtrwrrttrttffttfztzzzzttttietteeee9ZsA9zmbbbbnzbnbnDmmnmDbmbmbFKFFFFFFDDnnbnbzzbbnnmmnFMFbmMFFFDMmBZ^skikt",
"ppkpppttfrerptuerrwrwrrrwwttrurrtttttffffpffktttteteeecw7BGZ7mmzbnzbnbbbbnnmmmmnmbbmDFMFFFMmnnmnnbbznnnbnmMMFFnnDFFFKFMmlCHBkkkt",
"kkzzpkpztcrrututrrwrrrrwrrrrrutttttttfpfpfzttppzetit2ke27BBB8mzmbbnbbbnnbnmEmmDbmbbnmMFFFnMMbnbmnbbbzbDmMmMFFFnnmFWFKKFmBHB0kkkp",
"kzkzptzptptuppttrrrrrweewrrtrrufrttttfffzpztpptpettereee7Cs09blcnbzbbnbbDmnDbnmbbmbbmmFmFnMnmbzbbbbnznmMmmFFFFDFFEFKWKFKG``Bzzkp",
"zmzkzzpkppputputrrwrrerewrrrrufuttttrfpffzztppueeeteeree700s8zbmbbnbmbnbmmmnbnmbbbbmmmFmMDDmnnnbbnnbbnnmFmFFEFMMFFKFKKFKGZABnnbp",
"zzzzzkptptftptpttreetererwrrrrerrtrrrffztztpptteeeette2e4AHB6kbmnbbnnnDnmmmDnmnbDbbbbFmmMFnnmmnnbnbbbnnnMMFFW!mbFFFWKKFKBZA0nbbc",
"bzzzzppptpppfptptreerrrewturrrrertrprffgtpkttpteetrrite>4ZLB62bmbzzDbnnbmnDbmDbmbbbmnFnDMFnFDbmmmmbbnmmDWDFEFFmmmFFEKKFl0C(0elmz",
":;;;;=====&===$=$$$#$$$#$$$#$&#%@@@@o#&=,;=====**#&*%*+*8sBHZ:*;;==<;;,;,;;<;;,;;:=:;,;:;<,,;;::=%##+%=<::4:<::;;44<:<-6A`AA<*:=",
"^A)AHVVZVsZZHZV^V0VBshZhghhsjhGsGjjjj^Hj)(VBVVhVBBA00h7hBBVBVZZqhhhVZA^ZhB0ZBZZZCqhhZ^^CZCChZZCZVHZZAZHBZ~~ZZA~B_AC^A(VV(G))(ZZH",
"C~CC~~qqC~hCj~CqGCC~BBhZBCC~~ChCsVASAAZAhhhC0Ch00BBBCchhZHBZqAZHqhChCB0Z(^^ACAqqBAZACqhAAA^_Z~L^^CC(C~^ZACCHCCBBBCA^H__'_C~A~_^~",
"_~_~_~~~/~~G~_~~~/_C~~~C~~^~~~~~CBAhB0CJHHHHAAAAACAAAZZBAAAAHHHH~~~^^^^^^(^^(^A^HAAHHHHHHL^^(L_^CC~cAhC(_~H___~H(___'L'''''H_L__",
"aaaw8qawaaaaasaaasawwa3aaa4aaa8wV0AHZ0s7a7177771<1714<116167877775572777797k7767776707777a987777CC^hZhB00cas070a6c0h0hcsh0chss00",
"aaaaaa8awaaaaaaaaaa4waaaawaawaaa21SHZ6771777777111714<e17777777y7755772778772777727i99777a7777a798CZN8a000as00aa900h000shhhqss07",
"aaaaaaawaaaaaaaaaawaaa3waaaaw8aw26AZB6127777777111717111177777777<2177277aa792y277777777777777a780AH~8h000ca00as0s0ss0asshh07aa7",
"aaawaaaaaaaaaaaaaaaw4aaaw88waaa466hGA11777777111717e116177777117776<77777772292777777i7777777777i0~~H800si600saass0000a0h0c70a77",
"aaaaaaaaaaaaaaaaaaa43waaaaaaaaa826hVA:112777e1177171117717777777y772777777a2776277777a797777777i70~AZ8s000sac9c8sashc07ass000as7",
"aaaw8waaaaawaaaaaaaaa4wwgya46awa62VZA:<117277771717117111y7a7y777777777aa70777271777777777i77777a0~~c900assa0000ss0c0sssssc0aa76",
"3awaaaa8aawaaaaawaaw3wa8waawa6aw76VVZ3<:1717717777771171771777y7y777a7aaaaa2777171777171777a777iahAcA8q0sc09aas0s0shhBsassss0a77",
"aaaaaaq8aaaaaaaaaaaaa43a4a4aaaa429BBG<1<17e1771777771117<77777777777ayiay7777117771771171177a7y770C~~0007h00ssa0sss0kks0hhs0s0a7",
"aa3aaasaaaaaaaaaaaaaw3aaa44awa4w76h0Z611127777177y71<71177177777a77aa7aia777717771617117171127aa80C~c8aaassssa7sas0kBhBshhscsaa7",
"wa8awaaaaaaaaaawaaw4a4aww4aa6aa461h)H11<111777e77y11771117777iaaay7aiai0ya77771111711177771177aaahHCA8a0007s070sis0BkhBkcBshc077",
"awaaaaaaawaaaaawa3a84aawa<aa<aa<71CZH62<117117777911111<17172a2ay77aia0iia717117711717777717627776AcC8aa777s70900skBkhBhBcssh097",
"3aaaaaaaaa3aaaaaaaawa3way4w4ay4a76GVB69<1<1777i7ii117<71117772aaa77ai0k00ay7711<7177117717<1722616AAA87a77s77s00shshhBkBBss00a97",
"aaw8aaaa4aa4waadwaaaaw4aw48w<aw878VSB421<17717i7771761<126117a7a9k7aiak0ea7711<7k1c777711771272276BHA8987777sa0c0BsskhBVha0ia9y1",
"aa3aaaawaaawaaa3aaaa4aa4a4a48w4a28CBZ6y1<1111777aa111<7<1271a7a7777i7aaa7a7717<<1<<7177777<11676760hA89809assaashhchhhkks0aaaa77",
"3aaaaaaaaawa3aa35aaw855a55554a<578HCL672<<5<77y7y27116111617a2a7777aaiaa777111<<11272262777<127128BBC6779900a99aihchssVBs270aa72",
"wa3aaaawwa3aaaaa5aaa5aa58aa55aaw64Bsa4<2<<1<7777a727121112722227i71777a7711<<4<<11162677711412217<ZVH69977i0asy90sB0hhkhBsa2a226",
"aaawaaaaaa4awaaa78aaaa555a55a5aa,6)LH6;21<7777y77777271272777977761s7a77621<<<131412727771646124:6VBB84907akB77900skhklhk0ha7961",
"XXX OX@-+-+++%@%%%%%++%+++%+%%++;BH(A^;o%&&%==*;=-------;-*-*;--*%O+++%=**%%%%%%*%*%-*--**%%-;;+;AAVCH;+***=****=:--34;;;;**%+++",
"qCGjjqajCZjjqCqCjjhhhh~jhhAjZjjZ9VCVSVsBZhhH^C~ACZACBCCZBBZACCCZZZABLACCBBhChCBCBh0BBCZBBCACCqChCBZZALhAVCBAV(~ZAB(H'AH_(ZAA0900",
"q8aGa~~_CajjCaaqhjh^jjhaA8hjCZ^jAVHVhAABhVhCZZhh(VA^ZACAAAhh^AhZABhA'AHZCB0qC000qhA(ZhZCABABA^AAqBL9BBAZCH^CCCZAZABAAACACB00hCBq",
"~GCj~a~/_//G/~~~~/)/_//GHH//`{``HL`(`((L^^/))`_``'```````))`_```'LhAABH'`HHHHHAAHHHHLHAJHLHH(LDL(H(H(HHJL(H()L)JLH`'''```GAGDSAV",
"wjqGjjGggguguguufpgfggfuugggggggbbbkkkkpfpfffzzbbbmbmblblbbkkllbcAZHBAAckekeekkeik7ikiakeek2kkkekekktikpittkipktkkNNcVckkkceeke2",
"wyaCjjggggfrffrrrffffufffIggznbbfngggfpfuffffgbbbbmmbbmbDkbbblblccq~Ahlkkeiteiteiieeiikeekeeek2kikteiitiepppppppdklzmzzzktztetww",
"wwwq~gggggfrrrrffffffffufvfgngxgfIgggffpfffffgbbbbnbbbzbblkklbzbBkhCB9kkiikekeeeiieiekkeieeekeekktktkttttptpitkkpkzznzzkktttfeww",
"ywwCsdgggggffrrffupfffffpfffgbbngbIfngffufffffffbbbbzbblbplbzbbbkkhCC9kkktitk2eekikekekikieeeke2tikkkiteztppkiktkzmkkkzkkcpptttw",
"uwaj~agggggfrfrruufffffffpfgzbbbnbngnnfffftfffffpbbbzbzmbdkkbbbzkkh^B9kkkekieekkeekiekeikeekkekkkteiiketevpptppkzkzzNzzztptpptew",
"wwahjagggfuffuufffufffffffffgnbggbnfnngftfpffffffbbbbbzbzpbkbbpkkVsAC0kkkitiekk2keieceekeeekkkkkikppkteeepptppppzbzkppzpptppupee",
"wuaqqaggfffrfrrfrpffgffffgffbgbxnfnfgngffpffffufpbbkppbdbpbkbzdkkk0AH9kkkektk2keecekiikekeikie2kzpketteietptpppzkkzpzkkppktpptre",
"uwsCGafggffgrrrfrffffnfffbfggIngngbgngggfffpffpfbzdbbpbbbgbkbbfpkk9hC9kkkiiettekyikeikeeiekekkekkpkkptttuppttppkpkbkktzppptpppee",
"uwaCjugfgffgfffufpffffftffffbgnfIbnnggIffffppfufpzzkbbbbpdkbbbddik9Zq0kkkeiktikeiiekkiikkeekkekekpikkktiuteettupzzppfpkzpftpttte",
"uraCZagggffggfutfgftgggffffffgggngnnbgggffffffffffggggbbgbbkdbkbkk9BC9ekkeekek2kr2ekikeketekktippkkkppuctteiittkkiktppkzptppkptt",
"rraZCaggtgtffgffftggfggfftffffRggnngngfffftffffuffngSggSbbbupppzkk0ZB8kkkkeikeeekk2eekeekieiippkpppkpkpuieteitttikkkppkpzppkktte",
"ruaZsagggttgffggffgggfffffffggggnggnfnftrfffffffffgngbgbbdbkbkdptkBCZ92kieekeetieeekkeeeeetktkkpkpppkpputteetetkppekpkkktptppppt",
"wraZ~yggtftgtffgttffgggftftfgRggngnggffrtrfffffffggggbzbbkbppppbik9ZA9kkekkeekeeekek2kkekititipkkikkzpputettektipptkkpptteppppte",
"wyaC/gguttfgfffgttfufffuffffggg!ggggfffftfffffggfbfbbbdzbfbkbppppdaAh0kektk2ttikekee2kekeiektikkkppppupttteeetttktppktkpteitppte",
"uyaChyggfttgufufttfuuffuffffRgggEgEgffrffrffffggfpbbgfbbpdbpbpdbkksCqskk2kkeeekeekkkkek2ekeiekippppppfueteekkeeepzkiktiteteptppe",
"wuwhj4guftfffuuutrtfffufffffggggngIgffuftrffgffgpbbbbkfbkbzpkppppp0ZH8kkkk2e2err2keeekkeekkiiepkppkzppptreeee2ettvktipttetektkke",
"ww,hh,wgffffgfuuurutuuuffffgggggRgggffpfffffffffpbbbbzpbbkbpbpudk26AZ62keeeecktkeikkieekeikettptpkkzpputeewreeertteteeieeiutptkt",
"-,h~~~,-ooOOXO  .XXXoooO@o@@o@O@####@OOO@.OO@@@@@@@##OO##O@O@OoO*4BVCC::#OOoXoXoo+OOOOOOo+OoOO#+#++#OoOooXoooooo+oooOOOoooooO++o",
"hCsjjhj~ashjaasGssjjjhh~ggjhj_AjGhQhs~hGahVZjGZjhHVVV/hH^As0HCVZshZ^VAAAJBZABBBBVZZVCBAVBCBBCJHAVZ(JBB7BB00sGBBBBBBBBAHBBBBBHCZS",
"ZGZjChajjjjhjahjsahsjjjjd//ZHjjH^~]jj~hjjHZG^hhhHVHhZCZCBZZsCVhs(ZHBAZZBBVB00BCAVACBs0sBBsBAAZCA(HZ^HVAhVHJBVABCVBAHZV0BA0VBBBVA",
"CshhaChjZj~hZjhh8a8hhsjjjjjjajhjjj`jhjjsVGHj/~GGH)VZHZshhVAZBV_^BBB0s^CVCBBZVHVAVhB0CACs(ZshZVBCVBCB^sBZ'sB0B0B0sBsBHAVhGB0BVZCh",
"_~~Z~~~~~~~~~~G~~jshhZ_{HjA/_)//`````{`[//_`{/(`((__jZZ~A_^^___)(___``'`^^(~^^(HA(CCBSBAZ^B((`(_(`(((A^ZLAA~^A~^A~(BBhBZBCq(HH(^",
"jjjassssjjjajayjasj~h~/jj]gjggggFFgFgFgnbnngnnggzbbbG^_^GZVVVHHFVlZSKHZVBlBlBlBBVSCHBBhVBZdVBsVDsBBlBaaa0ssassysalssHCBZBVBsBBlB",
"jjjjsjsjjssjajjjssjsahj~sjgQEgggDgnFDnnggngSggggkbbbbGZClSVlVHFVZVVZQZVllBlBBllSVVSS80ZV9sdslsVldlBBladiydadddyssssBBsBhqBBdslBl",
"jjjjsjsshjjsajjjssjsshsjjggEgggggRggDgnnggggggggdggdDVhVVVVSVDGGGSlGVDVVlBBlBlVlVVVG0ZHC8dBsVllDsBdlls9saal9sBsddlsdsqhZ0sdBBaBB",
"jjjjsjdjdsjssssjsjsda~ZsajQgggggggFFgFgggggggggggggSSGZhSjSFjGGGGSlGGSVSjjjjjdjVVVVVsZCZ9sdsVdVVssdjSsssysssdddssdssl0ZB0BBdhVVl",
"jjGjjdsjjssdsisjsjjjaC/~agggQjEggEggggEggggggggdpgSnSjZZZSZGGGSjSZVGGSSjjjjjdjjVSjSSjhZj8sjddVdsdjjVjdssldshssssdBBlB0BZqVVVdVdh",
"jgjjsjjjssssasjdsjjdaaAjagggggggggggFEgggfggggEnggSSbgZhSZjGGGGSSVVSGSjVjjjddjjSGSVSqZhC8ddhdhVssjdjjgssassdsjdsdBddB9BB0VdddjVs",
"jHjjdsjjjssjssssdsjdaA/^8jgEEgjQggEFgQEggffggggggdggSjhZShSZSSSVGSVVVSjjjjdjjsdSSVSVa~ZZ8sdjVdljdsdjVsssysdsjdssalBsl0C(0BBdhsVj",
"jHjjjjjjsjsjhjssjsssahjhhggjggQggFgEEgngggggggDggdgbgjjjjjjGSVSGGSVVSSdjjhdsjjdSZlVS0VBA8jdjjsldssdVdsdyasdssdssdddss0BCqjjjddjj",
"jjjjgjjjjjjjjgjjjjjdaHAhaggQEgggggEgFFggggggggggggdbSdhhjSgjVVVVSVjSVjSjgdjjssdjlVVV0Bs09sjddjVjdsdVSsayadssdsssssdss9CCqVsjhjjj",
"jgHjjjjjjjjjjjjjjjjj8jsjajgggQQggFgFggjngEgggDgjbndgSshhjGjGjSVjVSdVSVSjjjjsdssjlhBl09sB8jshjsldddssssaiasssdhsdydsss0ZV0jVdjjVj",
"jjjjjjjjjjjjjjjjjjjj8jj~agggggggggggFgnSgggggggggbdgghhjjjjjjSjjVVjVjjjjVjssjssjVBlV9CBh6sdjdhdhsssdsyaaayisjsdssBdsa0(C0jVjjsjj",
"jHjjjjjjjjjjjjjjjjjjqj~jajg/ggjggingngngggfgggggbbbSbDGhgjZjjjjSgGjjGjjGShjdsssdBlhd9CZB6saddBssdjasddy77sssdsdhsdssa0C~qhdsjsjV",
"jjjjjjsjjjjjjjjjjjjj9j^jagggEggggggSDggngggggpgfblgSSdhjGjSjjVjVjjSjjjgSjsjjdsdhlssV9ChZ6slsdsddddsdsdsyaasssisjdsdssqZZqdjssjjV",
"jjjjjdsdjjjjjjjjjjjjqh~~aggggggggggnggSgggdfgdbflSbbSjhjjjFjSjjjGjjSjjjjddsssdsidssl0ZBh40BdsddsSdssysyaaysdssddhssdahhhqjjhshjj",
"jAjjjssjgjGjjjjjdjjj9sjjajggggggggggnggSggpggpdpgbSgbjhhGjjjsjjjjjjjjjjjjjjsshsjdBBV9CVh6assssBsbsssasasisasdssjddssa0hCqhjjjdhd",
"jjjsasjssjjjjjjjjsjj8hjjagjgggggggggSgggSgdgdppfgbblbshhjjhjsjhhjjjGjjjjjjhhsjsdlBBV60CV3ladssBsSllsdsysdassdssVssssa9ZB8jVjjhds",
"jjhhsassjhjsshjhdjja8_A~5dgggggggggnggngggpfdpgdbdSbd443hjjjjjdhjghjjhjjjjshdsghBll76BBB66BsdBddlssssydssasdhsddjdsd59^~89Vhhdsh",
"3--%--&-%&@@OX@@@@&6/jAAC6;OOO@O.OO@#@#@OOo@oooooO@#4hZq3##O@O+OO#@O%+OO@@XOOO%&--%:ABAVC-#---;;;-;-****---===-;;-*%4hhZ~3%-%&=&",
"hhhha8aj~hhh~jh~j~j~hjjhjjajhjjshhh^hjjhhha477hhC^^Z^Z0Zh~~hhhaja0qjhhhZ~ahhq9qhZC0BBVBVBB0CqB~Z0BhChhqZ~ChCZhqZ~qhZhZ^^^hChCCh9"
};
