/* XPM */
static char * block_xpm[] = {
"10 10 4 1",
" 	c None",
".	c #B9B9B9",
"+	c #1E1E1E",
"@	c #4E4E4E",
"    ..    ",
"  ......  ",
"..........",
"++......@@",
"++++..@@@@",
"+++++@@@@@",
"+++++@@@@@",
"+++++@@@@@",
"  +++@@@  ",
"    +@    "};
