/* XPM */
static char * blood_xpm[] = {
"10 10 7 1",
" 	c None",
".	c #650600",
"+	c #940015",
"@	c #580013",
"#	c #5E030C",
"$	c #710116",
"%	c #620113",
"      .   ",
"   .+   @ ",
"     .#   ",
". ...#$+  ",
"  .##%%$@ ",
" .#%%%$+  ",
"  .#$#$+  ",
"   ++$+   ",
"  .     + ",
"   +  @   "};
