/* XPM */
static char * blood_xpm[] = {
"10 10 6 1",
" 	c None",
".	c #660000",
"+	c #990011",
"@	c #550011",
"#	c #660011",
"$	c #770011",
"      .   ",
"   .+   @ ",
"     .#   ",
". ...#$+  ",
"  .####$@ ",
" .####$+  ",
"  .#$#$+  ",
"   ++$+   ",
"  .     + ",
"   +  @   "};
