/* XPM */
static char * HEHE_xpm[] = {
"8 8 29 1",
" 	c None",
".	c #D84B2D",
"+	c #DD5034",
"@	c #DF5236",
"#	c #D15136",
"$	c #E85239",
"%	c #DD503E",
"&	c #CE5039",
"*	c #CF5836",
"=	c #FF793A",
"-	c #DB5232",
";	c #D74039",
">	c #FF802F",
",	c #FFB03F",
"'	c #FF7F43",
")	c #CF5337",
"!	c #E6503F",
"~	c #F7AA38",
"{	c #FF7936",
"]	c #FEB640",
"^	c #FD7C3A",
"/	c #E24D2F",
"(	c #DA5238",
"_	c #EBB82B",
":	c #FBAE3C",
"<	c #F9B13B",
"[	c #F5B339",
"}	c #F1792B",
"|	c #E34F43",
" .      ",
"   +    ",
"   @  # ",
"   $%   ",
" & *=-  ",
"  ;>,') ",
" !~{]^/ ",
"(_:<<[}|"};
