/* XPM */
static char * HEHE_xpm[] = {
"8 8 15 1",
" 	c None",
".	c #DD4433",
"+	c #DD5533",
"@	c #CC5533",
"#	c #EE5533",
"$	c #FF7733",
"%	c #FF8833",
"&	c #FFAA44",
"*	c #FF7744",
"=	c #EE5544",
"-	c #FFAA33",
";	c #FFBB44",
">	c #EEBB33",
",	c #EE7733",
"'	c #DD5544",
" . +  @ ",
"   #.   ",
".  @$+  ",
"  .%&*@ ",
" =-$;$+ ",
"+>&-->,'",
" ,>;;,+ ",
"  ,++,  "};
