/* XPM */
static char * nest_xpm[] = {
"8 8 8 1",
" 	c None",
".	c #264F00",
"+	c #137000",
"@	c #009100",
"#	c #009000",
"$	c #00992E",
"%	c #009D20",
"&	c #026900",
"     .  ",
"  +  .  ",
"  .     ",
"    + + ",
" + +@ + ",
" .#@.$  ",
"  .%%&  ",
"   ..   "};
