/* XPM */
static char * smoke_small_xpm[] = {
"10 10 4 1",
" 	c None",
".	c #555555",
"+	c #666666",
"@	c #444444",
"      .   ",
"   +    . ",
"          ",
". + +     ",
"      + + ",
" +  +     ",
"       +  ",
"     +    ",
"  .     @ ",
"   .  @   "};
