/* XPM */
static char * smoke_small_xpm[] = {
"10 10 6 1",
" 	c None",
".	c #5D5D5D",
"+	c #606060",
"@	c #4E4E4E",
"#	c #525252",
"$	c #4A4A4A",
"      .   ",
"   +    @ ",
"          ",
". + +     ",
"      + + ",
" +  +     ",
"       +  ",
"     +    ",
"  #     $ ",
"   .  $   "};
