/* XPM */
static char * spark_xpm[] = {
"10 10 4 1",
" 	c None",
".	c #FFEB13",
"+	c #FF9F13",
"@	c #FF6313",
"          ",
"          ",
"          ",
"     .    ",
"          ",
"          ",
"  +       ",
"       @  ",
"          ",
"          "};
