/* XPM */
static char *result[] = {
/* columns rows colors chars-per-pixel */
"128 128 46 1 ",
"  c #67635E",
". c #6A6661",
"X c #6E6A66",
"o c #6F6C68",
"O c #716E6A",
"+ c #75726E",
"@ c #78746F",
"# c #6A6978",
"$ c #716F7B",
"% c #777470",
"& c #797672",
"* c #7D7A76",
"= c #757379",
"- c #7F7C78",
"; c #807C77",
": c #817E7A",
"> c #84827D",
", c #88857F",
"< c #7A7986",
"1 c #878480",
"2 c #898682",
"3 c #8D8A85",
"4 c #86848F",
"5 c #8F8D88",
"6 c #908C87",
"7 c #918E89",
"8 c #94918D",
"9 c #98958F",
"0 c #878690",
"q c #8F8E96",
"w c #979590",
"e c #999691",
"r c #9C9994",
"t c #94939A",
"y c #9E9D99",
"u c #A09D97",
"i c #A19E99",
"p c #A3A19D",
"a c #9C9BA1",
"s c #A5A4A4",
"d c #A9A6A1",
"f c #A7A6A9",
"g c #AEADAB",
"h c #B1B0AD",
"j c #B0AFB0",
"k c #B2B1B0",
/* pixels */
"w7233555533111123121355121551wrwrwwwrww85wwr1313555555w5585998533,,311333115wrwww15533335999rrruurrrrr9r9urr99rrrrr9999999955959",
"511225775533355122111131231111335113335151w8+%%%%*-->->-*-**@@@@@@@@%++++*%+%%%oo@->15111>->11313111-11139953311>>>>>-->--*--*-5",
"811>12255352255253221>1>12131131155311151111+o%%%**-*****@**@O@@@*@@+%++%%+%+O%%O@@*>531->->>-,,111111-1,>>,>1>>>-->-**->--*@-*1",
"5>>11122333233530211131205555515311113111111++%%%%%-*****@@***@**@@@++@@%%+++%+%O@@@-91>>->-->121111--->>>,>>>>>----@@*-@***--@,",
"85112222331223331121131335558552335513315511%o++@**@@***+@@*&*-&@@@@@@+@%%%o+%++@@@@-5->->*-1>-1>>>>->->>>>>>>,,->---@-@%@@@@-*5",
"522>12552332111351111333585585511311-1131>1>%%+%@*@@*@@@@@@@*&&%@@@@oo@@%%%%+oO+@@@@&5>>->11>>>>1>>>>-->;,>>>>,,>>1----@**>>---5",
"w21>1155533321112553515558w8w855533>1131511>%%%%*@@@@@@@*@@@*@%@@*@+@@@@&%++%+oo@-*--51>,1-11->>->>>--1>,;>>>;,>,,11-->>*&*@-*-3",
"w31>>132502213313315535w8558885211>>1>111513%%%---****@*@&@@O@@@ooo@O@o@*&%%%++%@@*--5111>1->>>>->>->>>>;>>;>,,>,,,1-,->&*-*>*-5",
"8321211211511533135333555858885511>*1>>11222%%%****@@O@@@&-@%@O@O++++O+O+%+++++%%----w11111-1>>-->>-->----->>,,,>>,,>>*@**@*->>3",
"e53211152211133333585323588w85553331111>5233%O--***-*@@&@&>@&@@OOO+o+++++++++++%%%-%*r>111-1->->>>>>*-->-->-@;>>>,,,,,-****-***5",
"p82>1211212232333351355355wwe855553133113533&%&-**@****@@-@-%%O@+OOo%%O%+++++%+%%**-*r>>-1-11->->>>*->>----->>,>,3>,>>-*-*-----5",
"y811>55255222125312523825w555885553531312532*&&&-****>**@@@@&@%+Oo++@%o%@%+%o+%*%%-%*r>>----->-1>>>>>->-----;>>->>,>>>------>->5",
"851112>1155522521313228555255551133355515253*&%&*****@-*@%%%%%%%%-@@O+%%@O+oo+%*%*%--y------->>->>>>>>>>---->>,>>,,,>>---&-----5",
"5211>111>12232223313255352225515111155535w55*&-*******@*@%*@+%O@%%O+++OOooo%%++%%%*%ow-1-----111>>>>>>>@->--->,>-,,,>>->--@-*--1",
"5>222>>>>>12221251135558253552151>13355www55>-*&*@****@@%%%@%%%%&%++OoOoo+o+O++%%*%%%w-1-1-1-11>>>>>->>->----,>,,>,,>-->&**+-&o@",
"5252252121>>111235111112222525231>3535w5555w&-&&@*@****@+@@+@+%%%++++O.oo%O+o@%&%%*%-w-1----1>>1>>>>->>->---->>->>,,>>--&*&-**&*",
"5213333>115>>2,,331113131553115525255585555r*%&&%**%-%+++%%+%+++o++OoOOo%o%%o%%%%-%-%r>1-------->>->---->---->>>>>,>>-----@-@-@*",
"2>3>>>>>>>>22221133513-33513555555555885855w-&--%****%%%%%+%%+o+@OO+oOo%o%ooo%%%-%%-%r---------->---->>>-*>>-*>>,>>--------->---",
"3:1>>5>>222>51,33351511311111155>55555858815%*%*%***%+%%%%%%%+++@ooooOooo%o%%%%%%--%+5------------>->>---*-**->>,->>-------**-**",
"11-511,233212>,,1131155355515515>355588581>1%%*%*%+%+-%*%%%%**+oo+++OO%%o%%oo%%%%%%%%5-%------1->>->1>>--**-->3>,->>>>------*-@*",
"1::*,3323531,,,,1111--->3>11112211553553>1>1-*%*+%+%%%%%%%%%%%%+++%+%+O%%%%%%11%%%%--5--%---------->----*@@@@*-*-->-------*--*@-",
"555588w8w8w58889ww533355www8qwww89wrrerurwwrwwrwwwwwwwr55wwwww53>11ww5www551155555wwwww5wwwwwyyy9r555555,,8,5358999953335,995535",
"3>-**:--*-*%@@;>->>1>31585511225>3515w85wwuuy855522211115555351>1-1-%%%%%%%%--->-115551--%-%-1>----*-*-->>,,,,>>,>>,,,-->--**-->",
"-::*-->-----;>>>>1>33558553>32351555555585588531555211355515511111-%***%%----%1--111--%-%%%-%----*->>--&->5,>>>>>>>,,>>-;------>",
"----*;-*;--::>>,1,1>2855853231533555585358582525521152555wwww553w-&*-**----%->-1->------%%%-----******&&@-3>>>->>;>>>>;;-;-;;--,",
"----*&*-*;-:>>,>,1221858535238135155w5535252552212525555www55553y>-&*%**--1-1--->---%-%-%%%%%--%*&&%&&&&@*5->->->>;;>>>;;>-;>>>;",
"*--*****&*;;;>,,,,221558555333311555w55353255552221135555ww55555r%---11>-1-->->--->-%-%%-%-%%-%=&@%%+%*&+@5-->>>;>>>,>;>;--,;;;;",
"*&**&&**;@&;:>>>,,>1183251313>11135355531555222252251555w55ww555r-%%------->>>->------%-%%%%%-%-&*&%%%%%@@>>--->>;>;>*;;>;;>;;**",
",*&*&&>*****;;,,:>>-:525222113113532355355135>152223253555555555r--&--&----->----------%-%%%%-%%%%%%*--&@@>*;@@>;;,;--;,>;;;>,**",
">*@*&*;*;@@&-;-;-----525553112>11353555353525852552555555ww55555r&-----&---->>>>>-----%--%-%%%%%%%*%*&&&@o1*;*;@*@@@@-;;-;;;3;;>",
"***&**>****@*;>;;*;::5255285321233335555253355525888we5555w5w555r&%---------->-----1---%--%%%-%---&-&**&@@,;;;;;*;;;*---;-;>,;;>",
">***@*****>;&;,;&->,:532355555315135555525255858555w5555w55w5555w%&&%%&--%----->>-------%%%%%%%%%%%---&&@@,@@*;@@@;@*@@;>;;,;;;>",
"*@***&;&;;;@;;:>::,>>,55,,,58533333555w553315555555w555w5w5515115-%%%-%%%%------>------=-%%%*%%%*%+%-%%*+o-%*%*%&&--***;;;;;;;;;",
"*>*&**;:::;*;::::>>>,rr,55,*53533,135855551555555555555w51115111w%-%%%%%%%%---11->------&%*%%%%%%*%%**%%++1%**&*&*-&***;;>;;;;-;",
">*@;*;**;;:;:::>>:>,>,u,33,,135513555585315355851555555551151-115%%%=%%%%%------>------*-&%%***%+%%*%**%+%1*******-----@@;;>-;:;",
">;*>;*;;O>::;:>::;,>>9u,3,3333385333588551553555551555w55511111>5%%%%%o%%%%%---------------%%**%*%%*-*%%%%5*****---*;---@,;;:;:@",
";;>;@;;;;1:;::;;>;,,>8w3333533333535558553331555515555w551511---w%%%%%o%%%%---------------%%&%&*%-%%%%%%%+5%**--*>>;;**@@;;@>-*-",
"*+**;;;;::;;@;;;;>,,15w833523353353w55555535355855555555555151115%ooo%o%%o%%=-------*-----*&o%&&-%%-%-%%%+8*%--***;;;;--;;;-;---",
"@;@;;;;;:::;;;;:-;>,1ew5358533533535w35555555555w555555555151151<%%%%=%%o%%%%--%=-%-------*&%%%*%%-%%%-%++5&**-*****>;;@;@-@-;--",
"++@;*;>>::::;;;:->>>>5w5333333335533555555555555555555555551111--%-%%%%%%%%%%%-%------*----&%%%-%%-%%%%%%+1%***-**;>;***;*@@*@@@",
"+%&*&;;;::;;&;;:-111-11555555533555335558555555555555555555115---o%-%%%%%%%%%%%-%------*-*&&%+%&-%-%*o*%o%-o%---*>->>***@******;",
"O%**&-;;:;;;::;>->->111-15151115353355555855555555515515515551----%%--%-**%-------%%%++%&&**&%%%%-%%%*%%%->%%%--*&-&****;;**;@@+",
";-->6wt9987760635555555555555555555yrwrrpre885555www5ww555555155551wwwq5155q11151155511125538w35w5511111111511553333,,11,23,,:-*",
">*1::;*>;;;&;*;;->>1531>--->111---55885888w85155511w5555551-1-155511-11-1--%--11555515-11:211111511---------*&--&@oo>>>--;o+@*-*",
"5::--:*2::>::::;->-11111->>->->>>>>>%>>>>1w5>1>11111115111>1511111111111111>1-111*155w1-&&++++%%%%%o%o%%%%+o%%-&+OOoOOO&O@O@+o&:",
"7-::*:->--**;;::>-->1>>>>>>>->-->>>>>--->>ww3>>1111155151>11111511115511-111111111>15w-**&%++%%%%%%%%%%%%%+%+*&%@@+oooOO%*@+@O+@",
"w:-:-:----**->>>->->>1>>>>>>>-0-->>>>>>-->5r5211111111111111115111111511-1111111111555--&%%o&%%%%%%%%%%%%%o+o-*%++@O%OOO@-*@@@@+",
"w:::::----:;=:::11->>>>>-->>----->>>>>->->5w23135511511111111511115111151>1-11-1111115%%+%+++%%%%%%%%%%o%+%o*%%%O+O+O%O@@@@@@@*@",
"w-:>:>::*--&--:::1-:>:>:-1->----->->>>->--ww5111551115111-1111115151151111111111313115&&%+%%%%&%%+++%+%++OOO*+%++@O+O++@&@++@@@@",
"w:>2>>::-:***--::::11>:1>>>------>>>>->---w11155111111111>>111511551555151115151111535*&+%+++%o%%%+%%+%%%++%+%++OOO+OO@&:@+@@@@*",
"e>>:>>>>----&*-->111>--:1------->>>>>>>---w51551555111111>>>51111111555555115111133115&%++%+++++%%+%%++OOoO+++%++O+O+OOO@+@@@@@*",
"e1>:>>:>*->*-:-:>:::-1->>------->>>>>>->--w511155155111--->>11155555155551555115113135*%&&&&%++++%+%++%o++O+o++++OO++O+O+@+@@*@*",
"9>>>->****----*-->>---->------>---1-->---15w511511111111-11>11515551551115131511111323*&+&&&%%+++++&+++%+X++@++%+@@@+OO+O*@*@@*&",
"8>>,>>>>**---***-----11>-->-->->1>1->>->-15w1115155511111>>--1115111515151555551111115&&%&-&*%%ooO++++++++++@+%@@@@@OOO@@*@****&",
"9>>>>>>***O%*&*&----->-1>>>--------1->>--15511115555151--11>11111515551531155515133155*++%*%%%+++o%+O%++o+%+@+@@+@@@OO+@+O@@**@>",
"9>>>>2>>--&***&***->-><>11->--->1-->-->1-1w5111511111111111>1>111155511115551151312325*&+++&%++&+++OO++++%%++++++@@@&@O+*@@@@*@3",
"6>>>>1----*&*-%**---::>>>>>--*->-----11-11w511511151111111>1-11>11,5533555555531232315&@&%&%&%%&+++%%%%%&@++O++oOo@+@OOO@@*@@@@3",
"7>>,>1>---***-%->-*--:-1>>>>-->>-1111--111y511511>11111111111111133135,,55151155233315&+%%+@%%@%++%++%&%&@+*+++@O@@@@@@O@@@@@@;3",
"7>>>1,1--:*-*>--*-->:>>111>->1*<-111-1111-5511511111111111>>11111333533555113355322213@&%+%+%&&&%%**>-*-**&&&@@+@OOOOOO@@@*@*@;5",
"9>>>,,1-----*-->-->>:>0111>1>>1>1->-11-1-155111115115115111>1111133,333553553355333313&@%%%%%%&-****&*&&*:&&+++OO+ooOOoO@+O@@@@3",
"9,,::,1-1-1---->>->-11111212>111-11--11-111>111511511111511111111313555555353335231112%+*%%%@&*&-****:-:**&@++@@+OXXOooOOOOoO@@,",
"6;:>:,1-,1-*----->->>>>11211>11>>>>--1111%1-11111115115111111111311355,5355553353312->%%+%&-@&&****-*&*&**&&@@@*++OOOoX.oO@oO@@,",
"3>:>,,,1>1:11:--->>>-->12111111>-->11111--1%-55111111151>111>>>11133553355833515323:--++%+%+&@@&**-:***&@&&**&*@O+OOOOoOo@@@@@@,",
"8,33358887w888755111---15>>>>>>>>>>-151-*-11--11555wyww5w5w5551->>>>,,,32,33315132:-:1&+%%%%&+@OO*&&&*2>35553533,,>>:,,;:>>>>,5,",
"6668999uiu9pr8765522122257587587555355223257757789rrwrw677t7341333159599999999595555,3113w335r555955558883duur99u999dpr,,u,u,pu,",
"1336e8887979732622322211111:1>1>:*:-:-*--211-111237622::::;-&>:23>>555535,3,,33,>>->11>*------->--->>->1,>r858853335,,33,,5r,,53",
"336688989789876758588523-1::->>>>:::-&&---&---:231>22pjju::-;;13535533,5535335,33153>>>>>>->->>>>>>>>,,,3,9889585333r,,,,,,,,,33",
"336868887988876755758w2:>>1:--:::::;:>----:-::::::11ga<<td;:::>653355355,5,3555335,1,>>->>->>>>>>>>,>>51,,9895553555,,u,,r,,,333",
"66668798997767775578rw:>>:>::>-::::::%-:-1-->:11>:1rf#*-#f3:32:2985855595,3,3333,,5,,,>>1,,,>>>>>>>>>>13,,r57885339,,r,ru,r,33,,",
"66676678777677r77887rw:::>::-::::::;-::--:11:2::>1:iq$::=ti::>,,9313355933353,,,5,,,>>>>>>>>>-->>>-1>>,1>>933,55339,,,u,,,r,33r,",
"88877768889777898rw7r7:>>:-*-1:1:1::1:-;:::::::1::1ea$;-<ar::>>>9335555535>,,33,,,>>>,>>->>>>>>->>111,->,>933322,,9,99,rr,,ur,,r",
"66866866898878997888yw:::---::>:;::;11----::&-+;;;:1j0##0k::>>>393935,5,5,5,3,3,,>>>>>>-1>>>,,>>>-1111>1>,93,335,,3,,,9,u,u,,,r,",
"6866666686878r968788rr>>:&-::>::::&&-:5211::;:::-*::5jjjj6:;::,8r333333,,,311131,1>>>>>>1,12,31313,,,1,>,>933322,5,557,5,,9,,9,9",
"36633366333696788888u8>:--*:;>:11-----&1::-*:-*:::::::22::;;:,>8u33333331331,3>3,>>->--,1122,3113,3,311,>>935353887,,,,7,r,r,99,",
"36636363366668888888u8:*--:-::1:1::>:::;>-::::-&;;-:::::::&;:>,89333333111,333>>,1>>-->->,12,3113131331,>>93833357,75,,5,,,,9,,,",
"66333633336667898788r7*;&-::;:1>11:>>>:::::;-->1:>:::>>:::;;::,893333,33,331,311,>,>,>->111,,>,,,13333,31>835,33,757,5,5,r9,,,99",
"6336333,333667886768r3&>-1:::>>:>>>>::::::::12:1::;:::::::;::::89333331,,13,3,11>3>>>>>>1>,23>5>133,133,3>83235377,7,5,,,9,8,,88",
":33363312,,233688977r6***:-:>>>*>>>26:::::11::::::1**&&;;:;;:1:wr3333331,131,>1,>11>>>>->>>>,1113131353,1>925333777,857,,,,,9>,,",
"33,3:3:3633363787787w7:*-:::>>21>>>>22::1;1:1::::;-&&-&O;::;::189333333,333,3>111,1>->>>111,>111133333333>933533,75,,7988,,,1,,7",
"3:366663332338777878r6>:*>;;>>22>>:>1:3:::>:;;:::::&&%&*&O:;:1179333333331>1111111>>>1>111112111,133,3353>9593237,7775,,,,,>>-:>",
":3:6323:666366777778r3*::>->>>113,>>>>>>>:**:::>::*--&::*&&::11w931353331,1,1,>1>11>>>1>111122121322235531w53663777,363,,,:,333>",
"36668772,37887787778w72:->>>>>23>2>32>:>;:**>>:*-::--&&*--;-::>ww1333331111,1,1,>1>,>>1>111111,11133321221w7763787773,3,,,,33,3>",
"633:3732332677767577r8>>>1>1>12,,22>*::::::::*>::>::--&--;--:>>8u333333111>>11,,>>>>>>,1>1>11>1,232223253;6:7877,77,383,,:>,2,>,",
":6893666363367683887r822>>1>2222>::>>>::>::-:>::-:-:--:--*--::->3->33331>,1,121,-,>>->1>>11>>1>133323223;;5>277777883633,3,>,336",
"::,26376330636635885r81>>>2>>>>>>:>:2::-*&&-:>>>1:>:::>:::-*-&*15>>-111>>>>>>,>>>>>-@@**->11>11>>3>>11>-:172::3577,7,7,,5252,>*:",
",33888e8e8612233255553367rwyyrrrwrwwww87311278wreww8ww8ww78w8w885wrrrrr9r95899531511>->>133558w887t75w7w5w55wwwwree8788887553>>>",
":@@O++@@++OOOO+%%&**&*&&&&*&&**&&@&&&++&*-23555875112>1>1223537rpurr9555559555,3131111>11--*>1>1>:&&--1225732--:>:--*&&@&%%%--:2",
";;Xo+O++@@%%OOOOO&%&&*++&+&&***&@+&&+++O%-28777w8535252232277675ww999998551893331515381-*-->>>>>:::::->>>1:1;**-::::-*---**&&>:5",
"@O+OOO+++O++OOOO+++%&++++%+&*&O+++++o%&oo-55888887527733572377355www88833555533385351w>->->->->>**:-:>::>::%::::-;::--&*&&&****8",
"OOXXXOO;++++OooOO+++&O&+&&&&&.&+&++*&+&+%X2q788w87552273333257775w9588885353533351355w>-->>>>->>;:-:>11>-1>:-:::-;:;;;-****-*-&8",
"+O+XXOO+@++O+++OO+OO+&&&&++&&+&&++@&+.&oX%2w88883773525533555777w99w88955533333533581r>>>>>>->>-:-->>>1>:1>:::>::::;-%*;-**-:1*8",
"O+XO+O++@++@OOOOOO+&++&+++&&%+++oooo++o+%%3w7755755555535325775758ww99589555533335555w>>>>>>>->*---:>11--:::::>1>>::*-**----***5",
"+OOOOO++@&++OO@OOO+++++++&+++++oOO+@%o+o++5w7857755333533337788w59ww9858555553,335552r>->>>-->%---->1>>-:;:-::::;&;--***-;::***7",
"OoOO .++%@++OXOOO+%++@&@%+++&&+. .X+++++&%5w77555553553533567888w99588885555333553353w>>->>1>-&>>->>11>>:1-::;-;-;:--&&:-:*;->*>",
"+OOOO+++%%+oOOXXO++&+&+&+&&&&oOo&+++O%+&%%5w85757553523333578788www988w55355553353355r>->--->&--->->>11>::--:-;-----****:;***-*5",
"+OOoOO%%%++++++O++%&+%++OO%+o+++o++++&&%&&58577873536523537778785988w8555333,33358333r>>>>>---->->->->>>:;-1---&-*-&&***:::-***1",
"OOOOO;OOX.OOO++++++;+;++++X+%+&%O+&&&&&&&&28588885227w7335778778e,888w853333335557353w-:>>>--:----1->>>--*-****---***---:---&&->",
"+++O+++.O+OOOO++++++%%%+X+%%@@+++++X&&++&o58885785w5w5585357787798888858332533535,775w-1>>*>>-:--*--*->>>-*&*--**&****-*::---&-7",
"+;OOOO;OXOOXOOO=%+O%;++o+oo+++%+++++%%++@&2w5558857577787857877,585883,83533333585887r:>1>>::-::-*-*-*:--*>*-*---&*&****:;-:--&w",
"OOOOOO;++OX+.OO@;%%+OoO.X++%&@+@@&+&&&&@&&2w588855885775255778535,5883553333555578788r1111>>:--:---*->>1>-**%&----*****:;;;:*;&7",
"OOoO++O;OXOXX%O%++O++%o%.O@+%%&;&&++&&@&+&5weww87w777777755583325,8535,8,5328w,578888y,112>>>:::------>>>-*&&-**-**--**--:::;*-7",
"OOO+++OXO++++X+=+;;++;;+&;&+;;;+++%&&&&@&&288ww8wwwww78177778555,5323385835>,wr858888y11>221:>>:*->o->->--*-&*----**>***-;::;--7",
"OoOOOO+OOXO+XOo++;+++%+;&&;;@;&%&++&&:**&&2588www8888w85337873322332355513235,,888888r22>,>2>>>>-:-&:>>>--*-*-*--O-*-:***;:>:1-5",
"oO+O+;++++XOXOO++++;%%+;&&+%;=&%+&&**&&**&22w88ww878w7855327132223312533333235889w888y,22,2>>>>>>>>---->--****%&-*--**-**-1:>-%1",
"=O;O+++O++OXOO++&&&O&&&&+&+@&&@@&&@******-1>,999w77778735335325222223555325323,85999,9>1,3,,>>3>1>-:-->---&-**&*;;::>;;;:*-::&&2",
";OOO=@+;;O+;@@@;&O%&;&&*&&;=@&&&&&**&&&&:122,,6665566665352222>>232312223353325w,8u,,e>-,,,,>>>,1>>>>-->----*****;:;;;;;&*&*&&-1",
"4668ee9e9878799uww789w87e88879terwru667888ww8899ww8wwwww757772>;:3w585wwree93,8,5>,,,9,-*>>>:>>:->>->---*&>255186333068632635533",
"7,,>,,,33,,>::33>23387222661133333787878rppuurrrrrrr98777w3587713:1252w5,8,,33rrrrreurureurw88ww858wrrw51>>>288886:689,31:1;w777",
"333,,326063,,33,3363ww6335336636763676668888888888977978886372232**&*-----:::--:11,,rpu76333227521211122>>1>1522322366633:366762",
",,33,,33633633,32222wr6336636663363655668888986987799879w776662>5&-*&:-*-::>>>>,28,2,5,2,>2>122211-11>1>155522251332666333667733",
"3,3,>3,336366,6,2,26:w35365563636233636388888888777w779w778766333-->--*--:>1>::121>>11212>>>>>11121>1>>1>15285522333333,,3688862",
",3,63336,,,63,6,2236rw6663666633332363366688888889ww797w877762378*->---%-:1:1::>>:21>>>1>:>>>>11111111>>>55152286333633,66669732",
"3:3368633663668666369w7666676556625533333368888887888889,89,w,3e5-->11-:-->>>:>:1:11:>>>->>:>>>1,,>1>>>>,:736666,333622266666626",
":3,,3:331366666666>69y333568565666368776667,8868989988799888w8,e5---:---:>&>--1111:>>:>>>>>-->>>,4111>>>;:7636326333622666666662",
"663313166786668676637336336666533,3673673777888897899,9,99ww,8,u5-->----:->1>->>::-1>>->>-*-:>>1,,111>>>>:7362663336366336666662",
"336:3:336686776667868622333333537733,73,736788889999999,w,,98,,e5----**:--:%:---:---->::--*>->>121>1>>>>>:6663663333,33366686362",
":33633366666669877636733333335337333636,3363788879898,e899,9,83,2*-*--&&**:---:>->->->--:-*-->:*2111,>>>:>70889e633,,332666,263,",
"663623783666666897762833335836,333637676333338889989889877w,88392***---**----->-1:-:>:-----:->>>2,>1,,2>>>768866633,,3366863233,",
";633366668879899799768636367,333733333337776338898999888889,,9,95**-----:----:-:>:::1:11:>---:->>>,>43,>,,76688666,3,,66686,36,,",
"633336688678968978787w37636322,3,3333336633678988988888877w79,,93-*--::::-----::---1311->:-->::::::>>,>,>,76668883333237663,6336",
",66336336688866677877r5733332,,33,63333777,7787978988887,r,,,,,r5-->->>-::>**------:11:1>::--1:>>::>421::>728666663,:36666,,866,",
"996666666886689697787r876676627,3,7633377777,,7888898888r,,u,r,r5>>----*----**---:::1-1:>3--:>:>:>>23>1:::t766686366,36666366666",
"667989876868896867776r577767563333,53536767,77>888888888urr,9,9r5>>>>----*-**-*--:1:->1>>>>11:>::>>>21>::>788666,,,6666663636666",
"667777788686668676773837786633323,3,3233,667,78889888787,u,e,u,p8>1>>>>-*****----1::>>11>1>>>>>:1*1>::1:;>786866666666,666366866",
"66777767877678777677>5>7673766663,,3,5,56,6686899998,888r,r,,e5r8131->-*--*-*>--:>1>>>:>:>->::;:1::1::::::63976686863366,3666766",
"3677877877886786968:-2:173636767,36,,,55666,,6,r98889898u,,u9r,rw>>>>->-***--->-::>:>:::-:-::>12111:1:::;;,>7766668636,633,366,6",
"3,6,63662633336633:;:1-:>23386856755,5555333,8,899998989,ee,w,8r8>>-------->->>-->1>>2::-->>123111111:22;;2:,7698666333,63666666",
"8ee89799978767779676777736788rprre9eree99899eruuruuuuuuuuepuupwrw555551------>--:-**&&=*----:1:1:::1:1:;;46,>,326366333333466798"
};
