/* XPM */
static char * empty_xpm[] = {
"53 53 82 1",
" 	c None",
".	c #818181",
"+	c #696969",
"@	c #595959",
"#	c #4C4C4C",
"$	c #4E4E4E",
"%	c #4F4F4F",
"&	c #4D4D4D",
"*	c #585858",
"=	c #686868",
"-	c #666666",
";	c #555555",
">	c #505050",
",	c #434343",
"'	c #414141",
")	c #424242",
"!	c #525252",
"~	c #515151",
"{	c #646464",
"]	c #5A5A5A",
"^	c #444444",
"/	c #575757",
"(	c #404040",
"_	c #636363",
":	c #5B5B5B",
"<	c #454545",
"[	c #616161",
"}	c #5C5C5C",
"|	c #656565",
"1	c #626262",
"2	c #464646",
"3	c #494949",
"4	c #474747",
"5	c #484848",
"6	c #535353",
"7	c #4A4A4A",
"8	c #545454",
"9	c #4B4B4B",
"0	c #7E7E7E",
"a	c #565656",
"b	c #848484",
"c	c #868686",
"d	c #888888",
"e	c #8A8A8A",
"f	c #878787",
"g	c #5D5D5D",
"h	c #5E5E5E",
"i	c #797979",
"j	c #5F5F5F",
"k	c #919191",
"l	c #8B8B8B",
"m	c #717171",
"n	c #606060",
"o	c #6F6F6F",
"p	c #838383",
"q	c #6E6E6E",
"r	c #6C6C6C",
"s	c #6D6D6D",
"t	c #676767",
"u	c #898989",
"v	c #6A6A6A",
"w	c #6B6B6B",
"x	c #787878",
"y	c #8C8C8C",
"z	c #909090",
"A	c #757575",
"B	c #747474",
"C	c #9A9A9A",
"D	c #8F8F8F",
"E	c #737373",
"F	c #727272",
"G	c #8D8D8D",
"H	c #929292",
"I	c #7B7B7B",
"J	c #9F9F9F",
"K	c #999999",
"L	c #939393",
"M	c #9B9B9B",
"N	c #9D9D9D",
"O	c #A2A2A2",
"P	c #A0A0A0",
"Q	c #9E9E9E",
"                    .+@#$$%%%$&*=.                   ",
"                 -;$>>,,'),'))),!~%*{                ",
"               -]%'''),^,,))),,)),,,%]-              ",
"             -/%((,,,),,,)))',,,,,,,,)%]-            ",
"           _;%',)),,,,,)),),)),,^^,,^),,%*_          ",
"          {:')),,),,,,),,'),'),(,,))<',,,):{         ",
"         -:(),,,,,,^,,',,)<,,'^,,,,,,,,,,,^:[        ",
"        -:,,,,,,,,,,,,,,),<),,)'),',,,,,,,^,}-       ",
"       -:(),,,,,,,,)'),,'^)^,,^,,',)',,),^^,<:-      ",
"      |](',^),,)),,,,,)<,((),),',)^),,,,,(,,,,:1     ",
"     _}),,,,,,)),,)',,)),,,,),))),),,,,,),'^,,,/_    ",
"     @,(,,,,',,,,^,,,,)',,,,,^)^,'),',,',',,,^,^@    ",
"    -$)),^,^^),,'^,,,^',),),,)'),),)',)'(,,,,,,,#-   ",
"    ]),)),),,,^,)),',))),))^),)'''),^),<(,,,',^,,]   ",
"   -%('),,^)),,^),(,))',,'),'(^,,,())(''),,,(,,,,$-  ",
"   *),),,^,)(,),,),),)'^(),)')))^,,),)),),'),,,,,,]  ",
"  -&'<','''),,,)),),,),,,,',,',),,,,',)^,,),'),,,,%_ ",
"  ]^<^^2')),,,,,)'),,',,',,,'),,,''^,,(),,,,,,),,,,@ ",
"  &,234<<()),,,,,)),,,,',()))',,^)),')',)',',^)',,,& ",
" .~23##5^,(),,,),),)),),,,,,,),',,,,'',),',),,),,,,$.",
" +;3#6&3<<()()(),)),,,,),'),^,,,^,,','',)))),,,,)),!+",
" *3%>;~$32^(,,,'),)),^<,'',,)^)'',)))'))^))^^,),),,)@",
" %73;/8~92^,,()),,),,)),,',,,,,,''<),(,,,,,,^,),,),,>",
"0a#%66;6&32,'',)))),),,',),,)^^)^,)),^))))^,),,,,,,)%",
"b;#&!~*a$3^,()),))),,,,,,,)),,,,^,,,),,)^,^,,,),^),)$",
"c!97>6;a~3,)('))',^),,,,^,,,,^<<,,,'',,'(^),,,,,,,,,&",
"d@%>$>!%#9^,',,'',,,)),,,),'^',,,,(),,,,,^,,)',,),,)%",
"ea!!3~!6##^^(,,)),,)')))),,,^,,),^,,,',,,,2,,,,),,<)&",
"f:&>!!%;%#2,(''),^),),,)'^,^,)'^,<,,),^,,),),',,,),,$",
"b/*a;;;ga!42))))',,,),,),,^'^,,'^,,^),(),,,)),)2<)^,$",
" +@g:6*h*;&3,^,),,,(^,,)))),^),)',,),,'(^),,))',),),@",
" i|jh}}jh>!#2)(,,),,,,,)',,^,,)),,)',),,,)',)',,^^,$+",
" k[j:;::j:>$4<'(')^),,,,,,)^),,''),,,,,,^))('<,),,,%.",
" l_6:**8j*%%3<^,^)'')')),,,',,),,,^,,,,,,,)^),,),))% ",
"  +;**g*!!;!7742<2,),),,)),,',,,,,,^^),,^),))),,,,,: ",
"  mj**[[:a;%%&$33<^)',,,)),,^,',,,',^,,)))),'),,,^&| ",
"  f:a:n]*!6%%!~%#54,,')),,)),),,),),)),,,,,,,,,^,,@  ",
"   m]g[[:*!7#!;/~93^<^()()'',),),,),),,',,,),),)'%=  ",
"   cj/h[-g!#9%@@6!#325<)<(,,),)),,,')^',,,),),',^@   ",
"    o@*[h:>$#&;/8;%%33242<,')'),,)^,))<,,^,^,,)^>=   ",
"    p[$hj*!&#9%%~;8~~%955<<^4',''),),',),^)^)2'^:    ",
"     -n;a}a~$3>$#;;8~;$#735422<((()^',,^,,',^,,:_    ",
"      q{~!*!;%#%98a*~/!8%##5332<5<,,,',(),,,,,:{     ",
"       r[%:~~!%6~%&*6a*/;!>%&#33^2,^3^^3^)(')g{      ",
"        o-!;~!!6>>~*a::*;;!;6~~#&934355<,,'):-       ",
"         --39>!68;6:*}:@@]/;/*;;!%>>#%#42<4g|        ",
"          r_#~/89%6:hjh]]j@jh}jh:a8688>%93h{         ",
"           s_h:]a>!>gg__-_1----thn*@@/a~:[+          ",
"            um{|8;78~g][+tvroow++-hha;|qxy           ",
"              zir{%!%6!_gvqAooro-[_*rB.C             ",
"                DEv*]:*g]-+Fqq+sFA+xbC               ",
"                  GeHx-[|_+sBFmIuJJK                 ",
"                      eLKMNJOPJQ                     "};
