/* XPM */
static char * full_xpm[] = {
"64 64 132 2",
"  	c None",
". 	c #6B0422",
"+ 	c #82062B",
"@ 	c #900730",
"# 	c #9B0834",
"$ 	c #9A0834",
"% 	c #84062C",
"& 	c #990834",
"* 	c #A50938",
"= 	c #83062B",
"- 	c #8F0730",
"; 	c #A5133B",
"> 	c #A61A3D",
", 	c #A62040",
"' 	c #A72542",
") 	c #A72944",
"! 	c #86062C",
"~ 	c #A83049",
"{ 	c #AA3C50",
"] 	c #AB4154",
"^ 	c #AA3A4F",
"/ 	c #A82D47",
"( 	c #85062C",
"_ 	c #8E0730",
": 	c #AF5261",
"< 	c #B15966",
"[ 	c #AE4E5E",
"} 	c #8E072F",
"| 	c #A9344B",
"1 	c #AD4C5C",
"2 	c #B3616D",
"3 	c #B66B75",
"4 	c #B15D69",
"5 	c #AC4657",
"6 	c #AC4456",
"7 	c #B05865",
"8 	c #AF5462",
"9 	c #AD4859",
"0 	c #B25E6A",
"a 	c #B56772",
"b 	c #B4646F",
"c 	c #B15B68",
"d 	c #B56873",
"e 	c #B66C76",
"f 	c #A9374D",
"g 	c #B05664",
"h 	c #B46671",
"i 	c #B2606C",
"j 	c #AD4A5B",
"k 	c #A40938",
"l 	c #A40937",
"m 	c #A30937",
"n 	c #A20937",
"o 	c #A10937",
"p 	c #690422",
"q 	c #980833",
"r 	c #A10936",
"s 	c #9E0836",
"t 	c #9D0835",
"u 	c #80062A",
"v 	c #960732",
"w 	c #9E0835",
"x 	c #8D072F",
"y 	c #9F0836",
"z 	c #950732",
"A 	c #930731",
"B 	c #960833",
"C 	c #970833",
"D 	c #990833",
"E 	c #910731",
"F 	c #920731",
"G 	c #9C0835",
"H 	c #6A0422",
"I 	c #940732",
"J 	c #910730",
"K 	c #670421",
"L 	c #660421",
"M 	c #650420",
"N 	c #640420",
"O 	c #A00836",
"P 	c #8C072F",
"Q 	c #7F062A",
"R 	c #89062E",
"S 	c #8B072E",
"T 	c #8A062E",
"U 	c #710424",
"V 	c #81062B",
"W 	c #87062D",
"X 	c #88062D",
"Y 	c #89062D",
"Z 	c #5B031D",
"` 	c #8B062E",
" .	c #60041F",
"..	c #760526",
"+.	c #7F052A",
"@.	c #9C0834",
"#.	c #770527",
"$.	c #7B0529",
"%.	c #7A0528",
"&.	c #790528",
"*.	c #7B0528",
"=.	c #81062A",
"-.	c #630420",
";.	c #720525",
">.	c #7E052A",
",.	c #780527",
"'.	c #7D0529",
").	c #710525",
"!.	c #62041F",
"~.	c #5D031E",
"{.	c #6E0424",
"].	c #7C0529",
"^.	c #750526",
"/.	c #55031B",
"(.	c #5D031D",
"_.	c #730525",
":.	c #760527",
"<.	c #510319",
"[.	c #61041F",
"}.	c #5C031D",
"|.	c #58031C",
"1.	c #6F0424",
"2.	c #7E0529",
"3.	c #6C0423",
"4.	c #5F031E",
"5.	c #4A0217",
"6.	c #4E0318",
"7.	c #52031A",
"8.	c #59031C",
"9.	c #500319",
"0.	c #4D0318",
"a.	c #4F0318",
"                                                                                                                                ",
"                                                                                                                                ",
"                                                                                                                                ",
"                                                                                                                                ",
"                                                                                                                                ",
"                                                                                                                                ",
"                                                  . + @ # # $ $ $ $ # # @ + .                                                   ",
"                                            % @ # $ & * * * * * * * * * * & $ # @ %                                             ",
"                                        = - $ * * * * * * * * * ; ; > ; ; * * * * $ - =                                         ",
"                                    = - $ * * * * * * * * * * ; , ' ) ) ' > ; * * * * $ - =                                     ",
"                                ! @ $ * * * * * * * * * * * ; , ~ { ] ] ^ / , ; * * * * * $ @ !                                 ",
"                              ( _ * * * * * * * * * * * * ; > / ] : < < [ { ) > * * * * * * * _ (                               ",
"                            % } * * * * * * * * * * * * * ; , | 1 2 3 3 4 5 ~ > * * ; ; * * * * } %                             ",
"                          % } * * * * * * * * * * * * * * ; , | 1 2 3 3 4 5 ~ > ; > > > > ; * * * } %                           ",
"                        % } * * * * * * * * * * * * * * * ; > / ] : < < [ { ) , , ) / ~ / ' > * * * } %                         ",
"                      ( } * * * * * * * * * * * * * * * * * ; , ~ { ] ] ^ / , , ) ^ 6 5 ] | ) > * * * } (                       ",
"                    ! _ * * * * * * * * * * * * * * * * * * * ; , ' ) ) ' > > , ~ 5 7 4 8 9 ^ / , ; * * _ !                     ",
"                    @ * * * * * * * * * * * * * * * * * * * * * ; ; > ; ; * ; , ~ 9 0 a b c 1 { / , ; * * @                     ",
"                  = $ * * * * * * * * * * * * * * * * * * * * * * * * * * * * > / ] 8 b 3 d 0 [ { ) > * * $ =                   ",
"                  - * * * * * * * * * * * * * * * * * * * * * * * * * * * * * ; ' | 9 7 a e d c 5 ~ , ; * * -                   ",
"                = $ * * * * * * * * * * * * * * * * * * * * * * * * * * * * * * > ) f 9 g 2 h i j | , ; * * $ =                 ",
"                - * * * * * * * * * * * * * * * * * * * * * * * * * * * * * * * * > ) | ] 1 8 : 6 ~ , ; * * * -                 ",
"              % $ * k * * * * * * * * * * * * * * * * * * * * * * * * * * * * * * * ; ' / ^ { { | ' > * * * * $ %               ",
"              - k l l k k * * * * * * * * * * * * * * * * * * * * * * * * * * * * * * ; > ' ) ) , > ; * * * * * @               ",
"              $ m n o n m k * * * * * * * * * * * * * * * * * * * * * * * * * * * * * * * ; ; ; ; ; * * * * * * #               ",
"            p q r s t s r m k * * * * * * * * * * * * * * * * * * * * * * * * * * * * * * * * * * * * * * * * * $ .             ",
"            u v w $ q # s n l * * * * * * * * * * * * * * * * * * * * * * * * * * * * * * * * * * * * * * * * * & +             ",
"            x y $ z A B # y n k * * * * * * * * * * * * * * * * * * * * * * * * * * * * * * * * * * * * * * * * * @             ",
"            C t D A E F C G r l k * * * * * * * * * * * * * * * * * * * * * * * * * * * * * * * * * * * * * * * * #             ",
"          H z # q I J @ A $ y m k * * * * * * * * * * * * * * * * * * * * * * * * * * * * * * * * * * * * * * * * #             ",
"          K A & q v A @ F q s m k * * * * * * * * * * * * * * * * * * * * * * * * * * * * * * * * * * * * * * * * $             ",
"          L J C q C z F F q s n k * * * * * * * * * * * * * * * * * * * * * * * * * * * * * * * * * * * * * * * * $             ",
"          M - v C q C A I D w n k * * * * * * * * * * * * * * * * * * * * * * * * * * * * * * * * * * * * * * * * $             ",
"          N } I z C C I A q t n k * * * * * * * * * * * * * * * * * * * * * * * * * * * * * * * * * * * * * * * * $             ",
"          N x F F z I F J z # O l * * * * * * * * * * * * * * * * * * * * * * * * * * * * * * * * * * * * * * * * #             ",
"          M P - } @ E - x E q w n k * * * * * * * * * * * * * * * * * * * * * * * * * * * * * * * * * * * * * * * #             ",
"            Q x R S } x T P A $ O m k * * * * * * * * * * * * * * * * * * * * * * * * * * * * * * * * * * * * * * @             ",
"            U V W X P x R Y } v t o k * * * * * * * * * * * * * * * * * * * * * * * * * * * * * * * * * * * * * & +             ",
"            Z % X X ` P T X T F $ O m k * * * * * * * * * * * * * * * * * * * * * * * * * * * * * * * * * * * * $ .             ",
"             .X ` X T ` ` T ` @ q t r m l k * * * * * * * * * * * * * * * * * * * * * * * * * * * * * * * * * * #               ",
"              u } R X X T P - F B # w O n m k * * * * * * * * * * * * * * * * * * * * * * * * * * * * * * * * * @               ",
"              ..W ` W W X P @ I v C D # w r m k * * * * * * * * * * * * * * * * * * * * * * * * * * * * * * * $ %               ",
"              N +.x X ( ! T - I v z I z q G O n k k * * * * * * * * * * * * * * * * * * * * * * * * * * * * * -                 ",
"                ..! T ( % ! S F B v F @ F C @.y n m k * * * * * * * * * * * * * * * * * * * * * * * * * * * $ =                 ",
"                M u x ! = = X @ v C I @ } E B # w r n m k k * * * * * * * * * * * * * * * * * * * * * * * * -                   ",
"                  #.X T ( ( X - z D C A - - F z & t y o n m k k * * * * * * * * * * * * * * * * * * * * * $ =                   ",
"                  K + - X W R } I q & C A @ @ F I C $ t y r n m k k * * * * * * * * * * * * * * * * * * * @                     ",
"                    $.Q - T T } F v q & B A @ @ F A z q # t y r n m l k * * * * * * * * * * * * * * * * _ !                     ",
"                      %.Q - S P @ F z B C z F J J E F I z q # t y O o n m k k * * * * * * * * * * * * } (                       ",
"                        &.Q J } } @ E A I I A F @ @ @ E F I v C $ @.t y r n m l l l l k k k * * * * } %                         ",
"                          &.u A @ - @ J E F F F - } } } @ E F A I z C & @.t O r r o r n m l k * * } %                           ",
"                            *.V I @ - - - @ @ @ } S R R ` x - @ @ @ @ F I v & # G G G t O o m k x %                             ",
"                              *.V F } P } @ E @ x R W ( ( W Y T T T T T ` } E I z z v q @.w O P =                               ",
"                                *.u ( P P - E F @ S X % + V V =.V V + + % ! R P } - E I B _ W =.                                ",
"                                  -.;.&.+ x @ A A @ S ! + >.*.,.#.&.%.'.>.u % X ` x } ( $.).!.                                  ",
"                                      ~.{.%.! A z I @ ` ! =.].#.^.^.#.&.%.'.u % X Q ^.p /.                                      ",
"                                          (.).>.T T X @ P W u *.,.#.,.%.*._.:.%.).M <.                                          ",
"                                              [.}.|.1.].! + 2.&.#.^...:.3.4.5.6.7.                                              ",
"                                                      (.8./.7.9.6.0.0.a.<.                                                      ",
"                                                                                                                                ",
"                                                                                                                                ",
"                                                                                                                                ",
"                                                                                                                                ",
"                                                                                                                                "};
